<?xml version="1.0" encoding="utf-8"?>
<!-- Generator: Adobe Illustrator 23.0.1, SVG Export Plug-In . SVG Version: 6.00 Build 0)  -->
<svg version="1.1" id="Layer_1" xmlns="http://www.w3.org/2000/svg" xmlns:xlink="http://www.w3.org/1999/xlink" x="0px" y="0px"
	 viewBox="0 0 262.2 264" style="enable-background:new 0 0 262.2 264;" xml:space="preserve">
<style type="text/css">
	.st0{fill:#E9F7FF;}
	.st1{clip-path:url(#SVGID_2_);}
	.st2{clip-path:url(#SVGID_4_);}
	.st3{fill:#B0D0F7;}
	.st4{opacity:0.2;fill:url(#SVGID_5_);enable-background:new    ;}
	.st5{opacity:0.5;fill:url(#SVGID_6_);enable-background:new    ;}
	.st6{opacity:0.2;fill:url(#SVGID_7_);enable-background:new    ;}
	.st7{fill:none;stroke:#31323D;stroke-width:2.449;stroke-linecap:round;stroke-linejoin:round;}
	.st8{clip-path:url(#SVGID_9_);}
	.st9{fill:#FFF4EB;}
	.st10{fill:#897DFF;}
	.st11{opacity:0.2;clip-path:url(#SVGID_11_);}
	.st12{fill:#7F7F7F;}
	.st13{fill:none;stroke:#31323D;stroke-width:2.048;stroke-linecap:round;stroke-miterlimit:10;}
	.st14{fill:#31323D;}
	.st15{fill:none;stroke:#31323D;stroke-width:1.966;stroke-linecap:round;stroke-miterlimit:10;}
	.st16{fill:#FFFFFF;}
	.st17{clip-path:url(#SVGID_13_);}
	.st18{fill:#F14BD3;}
	.st19{fill:none;stroke:#31323D;stroke-width:1.639;stroke-linecap:round;stroke-miterlimit:10;}
	.st20{clip-path:url(#SVGID_15_);}
	.st21{opacity:0.2;fill:#595959;enable-background:new    ;}
</style>
<g>
	<circle class="st0" cx="132.2" cy="130" r="130"/>
	<g>
		<defs>
			<circle id="SVGID_1_" cx="132.2" cy="130" r="130"/>
		</defs>
		<clipPath id="SVGID_2_">
			<use xlink:href="#SVGID_1_"  style="overflow:visible;"/>
		</clipPath>
		<g class="st1">
			<g>
				<defs>
					<path id="SVGID_3_" d="M196.7,242.6c13.3,5.8,31.2,7.8,31.2,7.8s66.7,8.8,76.6-47.9c3.8-31.5-34-38.1-34-38.1s17.6-7.1,24-1.4
						c0,0-3.5-5.9-8.9-6.4c0,0,22.7-15.6,41,20c0,0-2.4-18.1-9.7-21.7c0,0,27.4,6.3,32.2,47c0,0,5.1-8.1,4.5-14.9
						c0,0,13,19.4-1.4,41.8c0,0,11.3-11,12.2-16.9c0,0,14.2,41.3-29.1,47.5c0,0,11.8,4.5,19.6,0.6c0,0-7.5,16.6-31.9,14.5
						c0,0,11.8,8.2,19.1,6.5c0,0-17.9,9.3-48.3,2.6c0,0,10.3,9.6,17.9,9.8c0,0-0.7,0.2-2,0.5c-22,5.2-45.1,4.2-66.5-3.1l-29-9.8
						l-17.5-7.2L196.7,242.6z"/>
				</defs>
				<clipPath id="SVGID_4_">
					<use xlink:href="#SVGID_3_"  style="overflow:visible;"/>
				</clipPath>
				<g class="st2">
					<path class="st3" d="M189.3,149.4h180.4v149.1H189.3V149.4z"/>
					
						<linearGradient id="SVGID_5_" gradientUnits="userSpaceOnUse" x1="277.72" y1="42.72" x2="277.72" y2="96.85" gradientTransform="matrix(1 0 0 -1 0 350)">
						<stop  offset="0" style="stop-color:#808080"/>
						<stop  offset="0.27" style="stop-color:#7D7D7D"/>
						<stop  offset="0.46" style="stop-color:#747474"/>
						<stop  offset="0.64" style="stop-color:#646464"/>
						<stop  offset="0.8" style="stop-color:#4D4D4D"/>
						<stop  offset="0.95" style="stop-color:#303030"/>
						<stop  offset="1" style="stop-color:#242424"/>
					</linearGradient>
					<path class="st4" d="M233.9,266.9c20.6,10.1,13.8,20.2,38.3,22.2c40,6.3,63.3-8.2,75.1-23.6l19.3-8.6l-18.4,50.4L189,305.5
						l10.4-52.4C199.3,253.1,222.9,261.5,233.9,266.9L233.9,266.9z"/>
					
						<linearGradient id="SVGID_6_" gradientUnits="userSpaceOnUse" x1="326.325" y1="149.92" x2="326.325" y2="208.51" gradientTransform="matrix(1 0 0 -1 0 350)">
						<stop  offset="0" style="stop-color:#FFFFFF;stop-opacity:0"/>
						<stop  offset="0.72" style="stop-color:#FFFFFF"/>
					</linearGradient>
					<path class="st5" d="M294.4,163.1c0,0-12.6-11,25.8,3.5c38.2,14.4,31.9,33.6,31.9,33.6l32.8-13.5l-45-41.4l-66.1-3.4l-6.1-0.3
						L294.4,163.1z"/>
					
						<linearGradient id="SVGID_7_" gradientUnits="userSpaceOnUse" x1="-1899.6456" y1="1510.2311" x2="-1899.6456" y2="1587.4846" gradientTransform="matrix(0.8959 0.4443 0.4443 -0.8959 1296.6342 2453.5894)">
						<stop  offset="0" style="stop-color:#808080"/>
						<stop  offset="0.27" style="stop-color:#7D7D7D"/>
						<stop  offset="0.46" style="stop-color:#747474"/>
						<stop  offset="0.64" style="stop-color:#646464"/>
						<stop  offset="0.8" style="stop-color:#4D4D4D"/>
						<stop  offset="0.95" style="stop-color:#303030"/>
						<stop  offset="1" style="stop-color:#242424"/>
					</linearGradient>
					<path class="st6" d="M288.4,183.1c1.6,0.3,22.5,1.9,20.4,30.3c-2.1,29.5-23.7,36.9-60.1,34.6l43.6-47c0,0-2.5-3.7-7.8-10.8
						s-7.5-7.8-7.5-7.8C280.8,182.5,284.6,182.7,288.4,183.1L288.4,183.1z"/>
				</g>
			</g>
			<path class="st7" d="M193.8,243.1c13.5,5.9,31.8,7.9,31.8,7.9s68,8.8,78.1-48.2c3.8-31.7-34.7-38.3-34.7-38.3s18-7.2,24.4-1.4
				c0,0-3.6-5.9-9.1-6.4c0,0,23.2-15.6,41.8,20.1c0,0-2.4-18.2-9.9-21.9c0,0,27.9,6.4,32.8,47.3c0,0,5.2-8.2,4.6-15
				c0,0,13.3,19.5-1.4,42c0,0,11.5-11,12.5-17c0,0,14.5,41.5-29.7,47.8c0,0,12,4.5,19.9,0.6c0,0-7.7,16.7-32.5,14.5
				c0,0,12.1,8.2,19.5,6.6c0,0-18.3,9.3-49.2,2.6c0,0,10.5,9.7,18.3,9.9c0,0-0.7,0.2-2.1,0.5c-22.4,5.2-45.9,4.1-67.7-3.2l-29.6-9.9
				l-17.8-7.3L193.8,243.1z"/>
			<g>
				<defs>
					<path id="SVGID_8_" d="M255,290.1c-7.1-4.8-21.8-10.1-29.5-12.4l-0.1,0c3.1-8.2,3.5-17.2,1-25.6l-22.1-71.9
						c2.5-0.8,4.8-2,6.8-3.7c-2.7,1.3-6.4-1.3-9-3.6l-0.4-1.2c9,4.4,17.2-7.5,17.2-7.5c-7.4,0.9-16.7-5.1-22.4-9.5l-0.6-2
						c6,1.1,12.1-4,12.1-4c-3.6,0.1-7.4-2.9-10.8-6.7c-4.7-5.3-8.2-11.5-10.3-18.3l-9-29.3c-1.5-5.4-4.2-10.4-7.8-14.7l10.6-17.1
						c0.7-1.2,0.3-2.7-0.8-3.4c-0.4-0.2-0.8-0.3-1.2-0.4c-6.6-0.3-17.2,7.7-21.2,10.9c-3-1.5-6.2-2.6-9.5-3.3
						c1.1-2.2,2.3-4.3,3.6-6.3c0.5-0.8,0.3-1.8-0.5-2.3c-0.4-0.3-0.9-0.3-1.3-0.2c-4.4,1.2-9.2,4.6-10.6,5.7c-0.1,0.1-0.2,0-0.3,0
						c0,0,0-0.1,0-0.2c0.7-2.7,3.5-14.6,1.2-15.7c-2.1-1-6,8.6-7.3,12.3c0,0.1-0.1,0.2-0.2,0.2c-0.1,0-0.2-0.1-0.2-0.2
						c0.3-4,0.8-15-2.1-14.4c-3.2,0.6-9.2,14.4-10.4,17.1c0,0.1-0.2,0.2-0.3,0.1c0,0-0.1-0.1-0.1-0.1c-0.8-1.9-3.8-9.2-4.8-6.6
						c-1,2.3,0.1,7.1,0.6,8.9c0,0.1,0,0.2-0.1,0.2c-0.1,0-0.1,0-0.2,0c-3.1-2.8-8.5-2.9-12.1-2.5c-0.9,0.1-1.6,0.9-1.5,1.8
						c0,0.4,0.2,0.7,0.5,1c0.6,0.6,1.1,1.2,1.6,1.9c-3.8,1.1-7.5,2.7-10.8,4.8l-0.9-0.6c-6.8-5.6-17.4-12.7-21.5-7
						c-0.6,0.8-0.6,1.8-0.1,2.6l9.9,17.8c-2.9,4.7-4.7,10-5.4,15.4l-5,26.3c-1.3,6.7-4,13.1-8.1,18.5c-2.9,3.9-6.4,7.1-9.9,7.5
						c0,0,6.8,4.3,12.6,2.4l-0.4,2.1c-5,5.1-13.4,12.3-20.9,12.4c0,0,9.3,10.2,17.5,5.5l-0.3,1.6c-2.2,2.4-5.3,4.9-7.8,4.1
						c2,1.3,4.2,2.1,6.6,2.6l-14.3,75c-0.9,6.5-0.2,13.1,2.1,19.3h-0.1c-6.3,1.4-21.4,7.1-30.3,12.8c-4.4,2.8-1.7,9.2,3.8,9.1
						l43.9-0.9c0.7,0.5,1.5,0.9,2.3,1.3v0.5c0.1,3.8-1.1,7-4.9,7.2c-2.6,0.1-4.6,1.6-5,3.5c-0.8,3.5,1,6.4,4.5,6.6l13.8,0.8
						c4.3,0.3,8.5-1.9,10.7-5.6c0.7-1.2,1.2-2.5,1.4-3.9l0.8-4.4h87.7l0.6,3.4c0.7,4,3.3,7.4,7.1,8.9c1.2,0.5,2.4,0.7,3.6,0.6
						l15.1-0.5c3.6-0.4,4.9-2.6,4.6-6.1c-0.1-1.1-1-4-4-4.2c-2.6-0.1-4.1-1.4-4.6-3.6c3.8-1,7.4-2.6,10.7-4.6l43,0.8
						C256.6,299.3,259.2,293,255,290.1L255,290.1z"/>
				</defs>
				<clipPath id="SVGID_9_">
					<use xlink:href="#SVGID_8_"  style="overflow:visible;"/>
				</clipPath>
				<g class="st8">
					<path class="st3" d="M12.4,44h249.8v286.4H12.4V44z"/>
					<path class="st9" d="M83.5,324.5L103.7,223c2.7-13.4,14.3-23.2,28-23.4c14.3-0.3,26.6,9.9,29.2,23.9l17.7,97.5L83.5,324.5z"/>
					<path class="st10" d="M186.1,60.7c0,0-6.2-4.3-16.8,6.8l-5.5,6.7l9.2,7.6L186.1,60.7z M64.5,67.2c0,0,4.5-3.1,11.8-0.1
						c3,1.3,5.7,3.2,7.8,5.8l2.4,2.9l-6.2,9L64.5,67.2z M86.7,76.9L98.4,84c14,8.5,12.3-0.4,11.1-4.6s-7.2-13.3-7.2-13.3L86.7,76.9z
						 M114,61.6c0,0,1.6,30.2,11.1,30.5s7.3-31.4,7.3-31.4l3.9-20.4l-26.7,0.9L114,61.6z"/>
					<path class="st10" d="M147.8,66c0,0-9.4,22.5-3.2,25.4s19.9-18.4,19.9-18.4L147.8,66z M44.1,179.9c0,0,10.3,2.2,15.8,3.3
						c2.5,2.4,5.3,4.5,8.4,6.1c7.5,3.8,8.3,10.6,4.9,14.1c-4.3,4.5-16.9-0.2-21-2.9s-18.8-14.2-18.8-14.2L44.1,179.9z"/>
					<path class="st10" d="M25.6,176.8c0,0,24.6,36.5,41.5,44.5c10.5,5.3,11.6,14.8,6.9,19.7c-6,6.3-23.6-0.3-29.2-4
						s-26.3-19.8-26.3-19.8L25.6,176.8z M219.2,157.3c0,0-10.8,29.6-21.2,38.1c-6.4,5.5-5.5,12.2-1.4,14.9
						c5.2,3.3,16.3-4.3,19.6-7.9c3.3-3.6,14.9-18.3,14.9-18.3L219.2,157.3z M239.3,187.2c0,0-21.6,30.9-37.5,40.7
						c-9.8,6.4-9.8,16-4.6,20.4c6.6,5.6,23.4-3,28.6-7.4s23.9-22.7,23.9-22.7L239.3,187.2z M256.6,214.2c0,0-26.7,37.8-44.5,46.6
						c-4.7,2.5-6.3,7.2-7.6,10.5c-1.8,4-1,8.8,2.1,12c3.1,3.2,9.1,3.1,15.1,1.7c0,0,2.8-5.9,4.1-9.2c2.6-6.7,39.3-18.9,39.3-18.9
						L256.6,214.2z M33.8,243.7c6.3-4.2,16.8,3.2,19.8,8.6c2.2,4.1,1.9,6.9,7.1,14.2c3.8,5.2,4.6,12.9,3.6,14.7
						c-2.1,3.9-19.5-1-26.6-10.4C32.6,264.1,26.7,248.5,33.8,243.7L33.8,243.7z"/>
				</g>
			</g>
			<g>
				<defs>
					<path id="SVGID_10_" d="M255,290.1c-7.1-4.8-21.8-10.1-29.5-12.4l-0.1,0c3.1-8.2,3.5-17.2,1-25.6l-22.1-71.9
						c2.5-0.8,4.8-2,6.8-3.7c-2.7,1.3-6.4-1.3-9-3.6l-0.4-1.2c9,4.4,17.2-7.5,17.2-7.5c-7.4,0.9-16.7-5.1-22.4-9.5l-0.6-2
						c6,1.1,12.1-4,12.1-4c-7.1,0.2-15.4-12.2-18.9-18l-11.2-36.3c-1.5-5.4-4.2-10.4-7.8-14.7l12.1-19.5c-5.3-5.2-19.9,5.7-24.7,9.5
						c-3-1.5-6.2-2.6-9.5-3.3c1.1-2.2,2.3-4.3,3.6-6.3c0.5-0.8,0.3-1.8-0.5-2.3c-0.4-0.3-0.9-0.3-1.3-0.2c-4.4,1.2-9.1,4.6-10.6,5.7
						c-0.1,0.1-0.2,0.1-0.3,0c0-0.1-0.1-0.1,0-0.2c0.7-2.7,3.5-14.6,1.2-15.7c-2.1-1-6,8.6-7.3,12.3c0,0.1-0.1,0.2-0.3,0.1
						c-0.1,0-0.1-0.1-0.1-0.2c0.3-4,0.8-15-2.1-14.4c-3.2,0.6-9.2,14.4-10.4,17.1c0,0.1-0.2,0.2-0.3,0.1c0,0-0.1-0.1-0.1-0.1
						c-0.8-1.9-3.8-9.2-4.8-6.6c-1,2.3,0.1,7.1,0.6,8.9c0,0.1,0,0.2-0.1,0.2c-0.1,0-0.1,0-0.2,0c-3.1-2.8-8.5-2.9-12.1-2.5
						c-0.9,0.1-1.6,0.9-1.5,1.8c0,0.4,0.2,0.7,0.5,1c0.6,0.6,1.1,1.2,1.6,1.9c-3.8,1.1-7.5,2.7-10.8,4.8l-0.9-0.6
						c-7.3-6-19-13.8-22.3-5.5L80,84.5c-2.9,4.7-4.7,10-5.4,15.4l-6.4,33.5c-2.8,5.8-9.6,18.1-16.6,18.9c0,0,6.8,4.3,12.6,2.4
						l-0.4,2.1c-5,5.1-13.4,12.3-20.9,12.4c0,0,9.3,10.2,17.5,5.5l-0.3,1.6c-2.2,2.4-5.3,4.9-7.8,4.1c2,1.3,4.2,2.1,6.6,2.6
						l-14.3,75c-0.9,6.5-0.2,13.1,2.1,19.3h-0.1c-6.3,1.5-21.5,7.1-30.3,12.9c-4.4,2.8-1.7,9.2,3.8,9.1l43.9-0.9
						c0.7,0.5,1.5,0.9,2.3,1.3v0.5c0.1,3.8-1.1,7-4.9,7.2c-2.6,0.1-4.6,1.6-5,3.5c-0.8,3.5,1,6.4,4.5,6.6l13.8,0.8
						c4.3,0.3,8.5-1.9,10.7-5.6c0.7-1.2,1.2-2.5,1.4-3.9l0.8-4.4h87.7l0.6,3.4c0.7,4,3.3,7.4,7.1,8.9c1.2,0.5,2.4,0.7,3.6,0.6
						l15.1-0.5c3.6-0.4,4.9-2.6,4.6-6.1c-0.1-1.1-1-4-4-4.2c-2.6-0.1-4.1-1.4-4.6-3.6c3.8-1,7.4-2.6,10.7-4.6l43,0.8
						C256.6,299.3,259.2,293,255,290.1z"/>
				</defs>
				<clipPath id="SVGID_11_">
					<use xlink:href="#SVGID_10_"  style="overflow:visible;"/>
				</clipPath>
				<g class="st11">
					<path class="st12" d="M105.9,71.2c-13.4,3.9-21.9,19-26.6,39.4c-1.1,4.8-2.1,10.4-3,16.6c-2.4,16.1-4.6,36-7.3,54.4
						c-3.5,5.4-4.8,6.5-5.8,12.4c-3.4,19.2-3.4,42.2-4.6,51.8c-0.7,5.4-1,10.8-1.1,16.2v0.5c3.9,4.3,7.8,14.6,8.6,29l0.2,8
						c0,0-5.2-0.1-13.3-0.1c-10.2,0-18.2-18.4-13-45.7c4.7-24.6-11.2-150.4-11.2-150.4l46.3-7.3c3.3-14.2,14.1-25.5,28.1-29.3
						L105.9,71.2z M94.9,264.6c-4,24.3,8.9,29.3,11.3,29.8c14.2,2.5,36.8,1.5,44.1-1.1c6.9-2.4,21.4-9.6,17.8-31.1l7.1,42.2H87.4
						L94.9,264.6z M198.1,283.8c0,0,4.9-15,10.9-20.5c-6.5,12.3,2.3,15.2,4.6,14.4c8.8-3.1,12.3-11,13-24.6l10.7,19.1
						c0,0-9,42.1-33.5,35.2l-6.4-3L198.1,283.8z"/>
				</g>
			</g>
			<path class="st13" d="M175.3,304.1H87.9 M204.5,180.6l21.9,71.3c6.2,21.8-6.5,44.5-28.3,50.6c-0.2,0-0.4,0.1-0.5,0.1 M66.6,299.3
				c-15.2-8-23.8-24.6-21.6-41.6l14.1-74.3"/>
			<path class="st14" d="M95.7,264.5c-1.1,10-3.1,19.8-4.9,29.7L88.2,309c-0.5,2.7-2,5.2-4.1,7c-2.1,1.8-4.7,2.9-7.5,3.1
				c-0.7,0-1.3,0-2,0l-1.9-0.1l-3.8-0.2l-7.5-0.5c-1.5,0-3-0.6-4.2-1.6c-1.1-1.1-1.8-2.6-1.9-4.1c0-0.7,0-1.5,0.2-2.2
				c0.1-0.8,0.5-1.5,1-2.2c1-1.1,2.4-1.9,3.9-2.2c0.4-0.1,0.7-0.1,1.1-0.1c0.3,0,0.5,0,0.8-0.1c0.5-0.1,0.9-0.3,1.3-0.5
				c0.8-0.6,1.4-1.5,1.6-2.4c0.3-1.1,0.4-2.3,0.3-3.4l-0.2-3.8l-0.6-15v0.1c-0.3-3.2-1-6.4-2-9.5c-0.5-1.5-1.2-3-2-4.4
				c-0.8-1.4-1.7-2.8-2.7-4.1c-0.1-0.1-0.1-0.4,0-0.5c0.1-0.1,0.4-0.1,0.5,0l0,0c2.4,2.4,4.3,5.3,5.7,8.4c1.3,3.2,2.1,6.5,2.5,9.9
				v0.1l0.8,15l0.2,3.8c0.1,1.3,0,2.7-0.3,4c-0.3,1.5-1.2,2.8-2.4,3.7c-0.6,0.4-1.4,0.7-2.1,0.9c-0.4,0.1-0.7,0.1-1.1,0.1
				c-0.3,0-0.5,0.1-0.8,0.1c-1,0.2-1.9,0.7-2.6,1.4c-0.3,0.3-0.5,0.7-0.6,1.2c-0.1,0.5-0.1,1-0.1,1.6c0,1,0.4,1.9,1.1,2.6
				c0.8,0.7,1.7,1,2.8,1l7.5,0.4l3.8,0.2l1.9,0.1c0.6,0,1.2,0,1.7,0c2.3-0.1,4.4-1,6.2-2.5c1.7-1.5,2.9-3.5,3.4-5.8l2.8-14.7
				c1.9-9.9,3.7-19.7,6.2-29.4c0.1-0.2,0.3-0.3,0.4-0.3C95.6,264.1,95.7,264.3,95.7,264.5L95.7,264.5z M168.7,261.9
				c2.7,11.4,4.5,23,6.5,34.5l1.5,8.6l0.4,2.2c0.1,0.7,0.3,1.3,0.5,1.9c0.9,2.5,2.8,4.6,5.2,5.8c1.1,0.6,2.4,0.9,3.7,0.9l8.7-0.3
				l4.4-0.1l2.2-0.1c0.6-0.1,1.2-0.2,1.7-0.4c1-0.5,1.7-1.5,1.7-2.6c0.1-0.6,0.1-1.2,0-1.9c-0.1-0.6-0.3-1.1-0.6-1.6
				c-0.3-0.5-0.7-0.9-1.1-1.1c-0.2-0.1-0.5-0.2-0.7-0.3c-0.1,0-0.3,0-0.4,0l-0.6-0.1c-0.9-0.1-1.7-0.3-2.5-0.8
				c-0.8-0.4-1.5-1.1-2-1.9c-0.7-1.5-1-3.2-0.8-4.8l0.1-4.4l0.1-4.4c0-0.7,0.1-1.5,0.2-2.2s0.2-1.5,0.3-2.2
				c0.9-5.9,3.1-11.6,6.3-16.6c1.6-2.5,3.4-4.9,5.5-7c0.1-0.1,0.4-0.1,0.5,0c0.1,0.1,0.1,0.3,0,0.5c-7,9.3-11.3,20.5-10.8,32.1
				l-0.1,4.4v1.1c0,0.3,0,0.7,0,1c0,0.6,0.2,1.1,0.5,1.7c0.6,1,1.7,1.6,2.8,1.6l0.5,0c0.2,0,0.5,0.1,0.7,0.1
				c0.5,0.1,0.9,0.3,1.3,0.5c0.8,0.4,1.5,1.1,2,1.9c0.5,0.8,0.8,1.6,0.9,2.5c0.1,0.8,0.1,1.7,0,2.5c-0.1,0.9-0.4,1.8-0.9,2.5
				c-0.5,0.8-1.2,1.4-2,1.8c-0.8,0.4-1.6,0.6-2.5,0.7l-2.2,0.1l-4.4,0.2l-8.8,0.3c-1.7,0-3.3-0.4-4.7-1.2c-1.4-0.7-2.7-1.7-3.8-2.9
				c-1.1-1.2-1.9-2.6-2.4-4.1c-0.3-0.8-0.5-1.5-0.6-2.3l-0.4-2.2l-1.4-8.7c-1.9-11.6-3.9-23.1-5.1-34.8c0-0.2,0.1-0.4,0.3-0.4
				C168.4,261.6,168.6,261.7,168.7,261.9C168.6,261.9,168.6,261.9,168.7,261.9L168.7,261.9z"/>
			<path class="st15" d="M92.1,71.4c-6.8-5.6-17.3-12.7-21.4-7c-0.5,0.8-0.6,1.8-0.1,2.6l9.9,17.7 M157.7,70
				c4-3.2,14.6-11.2,21.2-10.9c1.4,0.1,2.4,1.2,2.4,2.6c0,0.4-0.1,0.8-0.4,1.2L170.3,80"/>
			<path class="st14" d="M69.3,181.6c-1.2,0.9-2.6,1.5-4.1,1.9c-1.5,0.4-3,0.5-4.5,0.4c-1.5-0.1-3-0.4-4.4-0.9
				c-1.5-0.5-2.9-1.1-4.2-1.8c-0.5-0.3-0.7-1-0.4-1.5c0,0,0,0,0,0c0.3-0.4,0.8-0.6,1.3-0.4c0.9,0.2,1.8,0,2.6-0.4
				c1-0.5,1.8-1.2,2.6-1.9c0.8-0.8,1.6-1.6,2.4-2.5c0.7-0.9,1.4-1.8,2.1-2.7l1.7,1.3c-1.4,1.6-3.2,2.8-5.3,3.5
				c-2.1,0.6-4.3,0.6-6.4,0c-2-0.6-3.9-1.5-5.6-2.6c-1.7-1.1-3.2-2.5-4.7-3.9c-0.4-0.4-0.4-1.1,0-1.5c0,0,0,0,0,0
				c0.2-0.2,0.4-0.3,0.7-0.3c2.5-0.1,4.9-0.8,7.1-2c2.3-1.2,4.5-2.6,6.5-4.2c2-1.6,4-3.3,5.8-5.2c1.8-1.8,3.6-3.8,5.2-5.7
				c0.3-0.5,1-0.6,1.5-0.2c0.5,0.3,0.6,1,0.2,1.5c0,0,0,0.1-0.1,0.1c-1.1,1.3-2.4,2.4-4,3.1c-1.6,0.6-3.3,0.9-5,0.8
				c-1.6-0.1-3.2-0.4-4.8-1c-1.5-0.5-3-1.2-4.4-2c-0.5-0.2-0.8-0.8-0.6-1.3c0.2-0.4,0.6-0.7,1-0.7c1.9-0.4,3.7-1.4,5-2.8
				c1.5-1.5,2.8-3.1,4-4.9c2.4-3.6,4.4-7.4,5.9-11.5c1.5-4.1,2.6-8.2,3.3-12.5l2.5-12.9l1.2-6.4l0.6-3.3c0.3-1.1,0.5-2.2,0.8-3.3
				c4-13.2,14.3-23.5,27.6-27.3c0.6-0.2,1.1,0.2,1.3,0.7c0.2,0.6-0.2,1.1-0.7,1.3c-12.6,3.7-22.4,13.5-26.2,26
				c-0.3,1-0.5,2.1-0.8,3.1l-0.5,3.2l-1.2,6.5L72.3,120c-0.7,4.4-1.9,8.7-3.4,12.9c-1.6,4.2-3.6,8.2-6.1,11.9
				c-1.2,1.9-2.7,3.7-4.3,5.3c-1.7,1.8-3.9,3-6.3,3.4l0.5-1.9c1.2,0.7,2.6,1.3,3.9,1.8c1.4,0.5,2.8,0.8,4.2,0.9
				c1.4,0.1,2.7-0.1,4-0.6c1.2-0.6,2.3-1.4,3.2-2.4l1.7,1.3c-1.7,2.1-3.5,4-5.4,5.9c-1.9,1.9-3.9,3.7-6,5.3
				c-2.1,1.7-4.4,3.2-6.8,4.4c-2.5,1.3-5.2,2.1-8,2.2l0.8-1.8c1.3,1.3,2.7,2.5,4.3,3.6c1.5,1,3.2,1.8,4.9,2.4c1.7,0.5,3.5,0.5,5.2,0
				c1.7-0.6,3.2-1.6,4.3-2.9c0.4-0.4,1.1-0.5,1.5-0.1c0.4,0.4,0.5,1,0.2,1.4c-0.7,1-1.4,2-2.2,2.9c-0.8,1-1.6,1.9-2.6,2.7
				c-0.9,0.9-2,1.6-3.1,2.2c-0.6,0.3-1.3,0.6-2,0.7c-0.8,0.1-1.5,0.1-2.3-0.1l0.9-1.9c1.1,0.8,2.3,1.4,3.6,1.9
				c1.3,0.5,2.6,0.9,4,1.1c1.4,0.2,2.8,0.2,4.1-0.1c1.4-0.3,2.7-0.8,3.9-1.5c0.2-0.1,0.4,0,0.6,0.2
				C69.5,181.2,69.5,181.4,69.3,181.6z M149.3,65.9c4.4,1.1,8.7,2.9,12.6,5.3c3.8,2.5,7.3,5.6,10.1,9.2c2.8,3.6,5,7.7,6.5,12
				c1.4,4.3,2.6,8.5,3.9,12.8l3.9,12.8c0.6,2.1,1.2,4.3,2,6.3c0.7,2.1,1.6,4.1,2.6,6c2,3.9,4.4,7.6,7.2,10.9
				c1.4,1.6,2.9,3.1,4.6,4.4c1.5,1.3,3.4,2,5.4,2.1c0.6,0,1.1,0.5,1.1,1.1c0,0.3-0.1,0.7-0.4,0.9c-1.3,1-2.6,1.9-4.1,2.6
				c-1.4,0.7-3,1.3-4.6,1.6c-1.7,0.3-3.4,0.3-5-0.1c-1.7-0.5-3.2-1.3-4.4-2.5c-0.4-0.4-0.4-1.1,0-1.5c0.4-0.4,1-0.4,1.4-0.1h0.1
				c1.9,1.8,3.9,3.4,5.9,5c2.1,1.6,4.2,3,6.4,4.4c2.2,1.3,4.5,2.4,6.9,3.3c2.3,0.9,4.8,1.2,7.3,1c0.6-0.1,1.1,0.4,1.1,0.9
				c0,0.3,0,0.5-0.2,0.7c-1.2,1.6-2.6,3.2-4.1,4.5c-1.5,1.4-3.3,2.5-5.1,3.4c-2,0.9-4.1,1.2-6.3,0.9c-2.1-0.4-4.1-1.3-5.7-2.8
				l1.4-1.5c0.8,0.8,1.6,1.7,2.4,2.4c0.8,0.8,1.7,1.5,2.7,2.2c0.9,0.7,1.9,1.2,2.9,1.6c0.9,0.4,1.9,0.4,2.8,0.1
				c0.4-0.3,1-0.2,1.3,0.3s0.2,1-0.3,1.3c-2.4,1.9-5.1,3.2-8.1,3.9c-1.5,0.3-3,0.4-4.5,0.2c-1.5-0.2-2.9-0.7-4.3-1.4
				c-0.2-0.1-0.3-0.4-0.2-0.6c0.1-0.2,0.3-0.2,0.5-0.2c1.3,0.6,2.6,0.9,4,1c1.4,0.1,2.8-0.1,4.1-0.4c1.3-0.4,2.6-0.9,3.8-1.6
				c1.2-0.7,2.3-1.4,3.4-2.3l1,1.5c-1.3,0.6-2.8,0.6-4.2,0c-1.2-0.4-2.3-1-3.4-1.8c-1-0.7-2-1.5-2.9-2.3c-0.9-0.8-1.8-1.7-2.6-2.6
				c-0.4-0.4-0.4-1,0-1.4c0,0,0,0,0,0c0.4-0.3,1-0.3,1.3,0c1.3,1.2,2.9,2,4.7,2.3c1.7,0.3,3.5,0,5.1-0.7c1.7-0.7,3.2-1.8,4.6-3
				c1.4-1.2,2.6-2.6,3.8-4.1l1,1.6c-2.8,0.2-5.6-0.1-8.2-1.1c-2.6-0.9-5-2-7.3-3.4c-2.3-1.4-4.5-2.9-6.7-4.5
				c-2.1-1.6-4.2-3.3-6.2-5.1l1.5-1.6c1,0.9,2.2,1.6,3.5,2c1.3,0.3,2.7,0.3,4.1,0.1c1.4-0.3,2.7-0.8,4-1.4c1.3-0.6,2.5-1.4,3.6-2.3
				l0.7,1.9c-1.3,0-2.5-0.2-3.7-0.8c-1.1-0.5-2.1-1.1-3.1-1.8c-1.8-1.4-3.5-3-5-4.8c-3-3.4-5.5-7.2-7.5-11.3c-1-2-1.9-4.1-2.7-6.2
				c-0.8-2.1-1.4-4.3-2-6.4l-3.8-12.8l-1.9-6.4c-0.6-2.1-1.2-4.3-1.9-6.3c-1.4-4.1-3.5-8-6.1-11.4c-2.7-3.4-5.9-6.4-9.6-8.7
				c-3.7-2.3-7.7-4-11.9-5c-0.5-0.1-0.9-0.6-0.8-1.2c0,0,0,0,0-0.1c0.1-0.5,0.6-0.9,1.1-0.9C149.2,65.8,149.2,65.9,149.3,65.9
				L149.3,65.9z"/>
			<path class="st14" d="M105.9,71.8c-0.8-1.2-1.6-2.3-2.5-3.4c-0.4-0.6-0.9-1.1-1.4-1.6c-0.2-0.2-0.5-0.5-0.7-0.7
				c-0.4-0.4-0.7-0.9-0.8-1.5c-0.2-1.2,0.5-2.3,1.6-2.8c0.3-0.1,0.5-0.2,0.8-0.2h0.6l1.1-0.1c1.5-0.1,3,0,4.5,0.1
				c1.5,0.2,3.1,0.6,4.5,1.2c0.7,0.4,1.4,0.8,2,1.3l0.1,0.1h0.1c-0.3-0.2-0.8-0.2-1.1,0c-0.2,0.1-0.3,0.3-0.3,0.5
				c-0.1,0.2,0,0.5,0,0.3l-0.1-0.3l-0.2-1.1c-0.3-1.5-0.5-3-0.6-4.4c-0.1-0.8,0-1.6,0.1-2.4c0.1-0.4,0.2-0.9,0.3-1.3
				c0.1-0.3,0.3-0.6,0.6-0.9c0.2-0.2,0.5-0.3,0.8-0.4c0.3,0,0.6,0,0.8,0.1c0.5,0.2,0.9,0.6,1.3,1c0.2,0.3,0.5,0.7,0.7,1
				c0.4,0.7,0.8,1.3,1.1,2s0.6,1.3,0.9,2l0.4,1l0.2,0.5l0.1,0.1c-0.1-0.2-0.2-0.3-0.4-0.4c-0.4-0.2-0.8-0.2-1.1,0.2
				c-0.1,0.1-0.1,0.2-0.2,0.2v-0.1l0.1-0.2l0.2-0.5l0.4-1l0.9-2c0.6-1.3,1.2-2.6,1.9-3.9c1.3-2.7,2.8-5.2,4.6-7.6
				c0.5-0.7,1.1-1.3,1.8-1.8c0.5-0.4,1.1-0.6,1.7-0.6c0.4,0,0.8,0.1,1.1,0.4c0.3,0.2,0.5,0.4,0.7,0.7c0.5,0.7,0.8,1.6,1,2.5
				c0.1,0.8,0.3,1.5,0.3,2.3c0.2,2.9,0.2,5.9,0,8.8l-0.1,1.1c0-0.2,0-0.4-0.1-0.6c-0.2-0.4-0.7-0.6-1.1-0.4
				c-0.2,0.1-0.4,0.2-0.5,0.4c-0.1,0.3,0,0.1,0,0.1l0.1-0.1l0.1-0.3l0.8-2c0.6-1.3,1.1-2.7,1.8-4c0.6-1.4,1.3-2.7,2.1-3.9
				c0.4-0.7,1-1.4,1.6-1.9c0.1-0.1,0.2-0.2,0.3-0.2c0.1-0.1,0.3-0.2,0.4-0.2c0.4-0.2,0.8-0.2,1.2-0.2c0.4,0.1,0.8,0.3,1.1,0.6
				c0.1,0.1,0.2,0.3,0.3,0.4c0.1,0.1,0.1,0.2,0.2,0.4c0.3,0.8,0.4,1.7,0.4,2.5c0,0.8,0,1.5-0.1,2.3c-0.1,1.5-0.4,2.9-0.6,4.4
				s-0.6,2.9-0.9,4.3l-0.5,2.1c0-0.1,0-0.2,0-0.3c0-0.2-0.1-0.4-0.3-0.5c-0.3-0.3-0.8-0.3-1.1,0l0.4-0.3l0.9-0.6
				c2.4-1.7,5-3.2,7.8-4.3l1.1-0.4c0.4-0.1,0.9-0.2,1.3-0.3c1.2-0.1,2.3,0.7,2.7,1.8c0.2,0.6,0.2,1.2,0,1.7
				c-0.1,0.3-0.2,0.5-0.4,0.7l-0.3,0.4c-0.4,0.6-0.8,1.2-1.2,1.8c-1.6,2.4-2.9,4.9-4.1,7.5c-0.1,0.2-0.3,0.3-0.5,0.2
				c-0.2-0.1-0.3-0.3-0.2-0.5c0.7-2.9,1.8-5.6,3.3-8.2c0.4-0.6,0.7-1.3,1.1-1.9l0.3-0.5c0.1-0.1,0.1-0.2,0.1-0.2
				c0.1-0.3-0.1-0.7-0.4-0.8c-0.1,0-0.1,0-0.2,0c-0.3,0.1-0.5,0.1-0.8,0.2c-0.3,0.1-0.6,0.2-1,0.3c-2.6,1.1-5,2.4-7.3,4.1l-0.9,0.6
				l-0.4,0.3c-0.5,0.4-1.1,0.4-1.6,0c-0.2-0.2-0.4-0.4-0.4-0.7c0-0.2,0-0.4,0-0.6l0.5-2.1c0.3-1.4,0.6-2.8,0.8-4.2s0.4-2.8,0.6-4.2
				c0.1-0.7,0.1-1.3,0.1-2c0-0.6-0.1-1.2-0.2-1.7c-0.1-0.2-0.1-0.1,0.1,0s0.1,0-0.1,0.2c-0.4,0.4-0.8,0.9-1.1,1.4
				c-0.7,1.2-1.4,2.4-2,3.7c-0.6,1.3-1.2,2.6-1.7,3.9l-0.8,2l-0.1,0.2l-0.1,0.1c0,0.1-0.1,0.2-0.1,0.3c-0.2,0.3-0.4,0.5-0.7,0.6
				c-0.6,0.2-1.2-0.1-1.6-0.6c-0.1-0.2-0.2-0.5-0.2-0.8l0.1-1.1c0.2-2.8,0.2-5.7,0-8.5c-0.1-0.7-0.2-1.3-0.3-2
				c-0.1-0.5-0.3-1.1-0.6-1.6c-0.1-0.1-0.1-0.1,0-0.1c-0.1,0-0.2,0.1-0.3,0.2c-0.4,0.3-0.8,0.7-1.1,1.1c-1.7,2.3-3.1,4.7-4.3,7.2
				c-0.6,1.3-1.3,2.6-1.9,3.9l-0.9,1.9l-0.4,1l-0.2,0.5l-0.1,0.2l-0.1,0.1V63c-0.1,0.1-0.1,0.3-0.2,0.4c-0.4,0.5-1.1,0.5-1.6,0.2
				c-0.2-0.2-0.4-0.4-0.6-0.7v-0.1l-0.2-0.5l-0.4-1c-0.3-0.7-0.6-1.3-0.9-1.9c-0.3-0.6-0.6-1.2-1-1.8c-0.2-0.3-0.3-0.5-0.5-0.8
				c-0.2-0.2-0.4-0.4-0.3-0.4c0.1,0,0.2,0,0.3,0c0.1,0,0.2-0.1,0.3-0.1c0.1-0.1,0.1-0.1,0,0c-0.1,0.3-0.2,0.5-0.2,0.8
				c-0.1,0.6-0.1,1.3-0.1,1.9c0.1,1.4,0.3,2.8,0.6,4.1l0.2,1l0.1,0.2c0,0.2,0,0.4,0,0.6c-0.1,0.3-0.2,0.5-0.4,0.7
				c-0.5,0.4-1.1,0.4-1.6,0l-0.2-0.2c-0.5-0.4-1-0.7-1.6-1c-1.2-0.6-2.5-0.9-3.8-1.1c-1.4-0.2-2.8-0.2-4.1-0.2l-1.1,0.1H103
				c-0.3,0.1-0.4,0.4-0.4,0.7c0,0.1,0.1,0.3,0.2,0.4c0.2,0.3,0.5,0.6,0.7,0.9c0.5,0.6,0.9,1.2,1.3,1.8c0.8,1.3,1.4,2.6,1.9,4
				c0.1,0.2-0.1,0.5-0.3,0.5c-0.2,0-0.3,0-0.4-0.2L105.9,71.8z"/>
			<path class="st13" d="M47,277c-6.2,1.5-21.4,7.1-30.2,12.8c-4.3,2.8-1.7,9.2,3.8,9.1l46-0.9"/>
			<path class="st14" d="M32.2,290.6c-1.7,0.4-3.3,1.3-4.4,2.6c-0.5,0.6-0.7,1.4-0.6,2.2c0,0.4,0.1,0.8,0.2,1.2
				c0.1,0.4,0.3,0.8,0.5,1.1l0.1,0.2c0.2,0.5,0,1.1-0.6,1.3c-0.5,0.2-1.1,0-1.3-0.6l0,0c0,0,0-0.1,0-0.1c-0.2-0.5-0.3-1-0.4-1.5
				c-0.1-0.5-0.1-1.1-0.1-1.6c0-1.1,0.5-2.2,1.2-3c0.7-0.8,1.5-1.4,2.5-1.8c0.9-0.4,1.9-0.6,2.9-0.8c0.2,0,0.4,0.1,0.4,0.3
				C32.4,290.4,32.3,290.5,32.2,290.6L32.2,290.6z M24.3,290.9c-1.5,0.3-2.7,1.3-3.3,2.7c-0.2,0.7-0.2,1.4,0,2
				c0.1,0.3,0.2,0.7,0.3,1l0.5,1v0.1c0.2,0.5,0,1.1-0.5,1.4c-0.5,0.2-1.1,0-1.4-0.5c0,0,0-0.1,0-0.1l-0.4-1.3
				c-0.1-0.5-0.2-0.9-0.2-1.4c-0.1-0.9,0-1.9,0.4-2.8c0.4-0.9,1.1-1.5,1.9-2c0.8-0.4,1.6-0.7,2.5-0.8c0.2,0,0.4,0.1,0.4,0.3
				c0,0,0,0,0,0C24.7,290.7,24.5,290.9,24.3,290.9L24.3,290.9z"/>
			<path class="st13" d="M225.5,277.5c7.8,2.3,22.4,7.5,29.5,12.4c4.3,2.9,1.7,9.2-3.8,9.1l-42.9-0.8"/>
			<path class="st14" d="M239.8,289.5c1,0.2,2,0.5,2.9,0.9c1,0.4,1.8,1,2.5,1.8c0.7,0.9,1.2,1.9,1.2,3.1c0,0.6,0,1.1-0.1,1.7
				c-0.1,0.5-0.3,1-0.5,1.5c-0.2,0.6-0.7,0.9-1.3,0.7s-0.9-0.7-0.7-1.3l0-0.1l0.1-0.1c0.4-0.7,0.6-1.5,0.7-2.3
				c0.1-0.8-0.1-1.6-0.6-2.2c-1.1-1.4-2.7-2.4-4.4-2.8c-0.2,0-0.3-0.2-0.3-0.4c0,0,0,0,0,0C239.4,289.6,239.6,289.5,239.8,289.5
				L239.8,289.5z M247.5,289.8c0.9,0.2,1.8,0.5,2.5,1c0.8,0.5,1.5,1.2,1.9,2.1c0.4,0.9,0.6,1.9,0.5,2.9c0,0.5-0.1,0.9-0.2,1.4
				l-0.4,1.3c-0.2,0.6-0.8,0.9-1.3,0.7s-0.9-0.8-0.7-1.3c0,0,0-0.1,0-0.1l0-0.1l0.5-1c0.1-0.4,0.2-0.7,0.3-1.1
				c0.2-0.7,0.1-1.4-0.1-2.1c-0.6-1.4-1.8-2.5-3.3-2.9c-0.2-0.1-0.3-0.3-0.2-0.5C247.2,290,247.3,289.8,247.5,289.8L247.5,289.8z"/>
			<path class="st16" d="M177.3,91.9c-6.5-2.6-13.9-1.2-18.9,3.8c-8.4,8.2-8.6,21.7-0.4,30.1c8.2,8.4,21.7,8.6,30.1,0.4
				c3.4-3.3,5.6-7.7,6.2-12.4c0-0.2,0-0.4,0.1-0.5c0.8-7.1-3.9-14.6-10.3-18C181.8,93.9,179.5,92.8,177.3,91.9L177.3,91.9z"/>
			<g>
				<defs>
					<path id="SVGID_12_" d="M177.3,91.9c-6.5-2.6-13.9-1.2-18.9,3.8c-8.4,8.2-8.6,21.7-0.4,30.1c8.2,8.4,21.7,8.6,30.1,0.4
						c3.4-3.3,5.6-7.7,6.2-12.4c0-0.2,0-0.4,0.1-0.5c0.8-7.1-3.9-14.6-10.3-18C181.8,93.9,179.5,92.8,177.3,91.9L177.3,91.9z"/>
				</defs>
				<clipPath id="SVGID_13_">
					<use xlink:href="#SVGID_12_"  style="overflow:visible;"/>
				</clipPath>
				<g class="st17">
					<circle class="st18" cx="166.4" cy="111.6" r="14.4"/>
					<circle class="st14" cx="166.4" cy="111.6" r="10.6"/>
					<circle class="st16" cx="170.6" cy="102.7" r="5.8"/>
				</g>
			</g>
			<path class="st19" d="M177.3,91.9c-6.5-2.6-13.9-1.2-18.9,3.8c-8.4,8.2-8.6,21.7-0.4,30.1c8.2,8.4,21.7,8.6,30.1,0.4
				c3.4-3.3,5.6-7.7,6.2-12.4c0-0.2,0-0.4,0.1-0.5c0.8-7.1-3.9-14.6-10.3-18C181.8,93.9,179.5,92.8,177.3,91.9L177.3,91.9z"/>
			<path class="st16" d="M81.9,95.4c6.5-2.7,13.9-1.2,18.9,3.8c8.4,8.2,8.6,21.7,0.4,30.1c-8.2,8.4-21.7,8.6-30.1,0.4
				c-3.4-3.3-5.6-7.7-6.2-12.4l-0.1-0.5c-0.8-7.1,3.9-14.6,10.3-18C77.4,97.4,79.7,96.3,81.9,95.4z"/>
			<g>
				<defs>
					<path id="SVGID_14_" d="M81.9,95.4c6.5-2.7,13.9-1.2,18.9,3.8c8.4,8.2,8.6,21.7,0.4,30.1c-8.2,8.4-21.7,8.6-30.1,0.4
						c-3.4-3.3-5.6-7.7-6.2-12.4l-0.1-0.5c-0.8-7.1,3.9-14.6,10.3-18C77.4,97.4,79.7,96.3,81.9,95.4z"/>
				</defs>
				<clipPath id="SVGID_15_">
					<use xlink:href="#SVGID_14_"  style="overflow:visible;"/>
				</clipPath>
				<g class="st20">
					<circle class="st18" cx="93.8" cy="115" r="14.4"/>
					<circle class="st14" cx="93.8" cy="115" r="10.6"/>
					<circle class="st16" cx="98.1" cy="106.1" r="5.8"/>
				</g>
			</g>
			<path class="st19" d="M81.9,95.4c6.5-2.7,13.9-1.2,18.9,3.8c8.4,8.2,8.6,21.7,0.4,30.1c-8.2,8.4-21.7,8.6-30.1,0.4
				c-3.4-3.3-5.6-7.7-6.2-12.4l-0.1-0.5c-0.8-7.1,3.9-14.6,10.3-18C77.4,97.4,79.7,96.3,81.9,95.4z"/>
			<path class="st14" d="M194.4,112.6c0,0,3.6-12,2.6-18.2c0,0-3.3,3.1-6,2.9l1.1-3.9l-8.6,2C183.5,95.4,193.8,101.2,194.4,112.6
				L194.4,112.6z M64.4,117.3c0,0-4.4-11.8-3.8-18c0,0,3.4,2.9,6.2,2.5l-1.3-3.8l8.7,1.4C74.2,99.4,64.2,105.9,64.4,117.3z
				 M131.6,134.3c2.1,3.2,4.5,6.1,7.1,8.8c2.6,2.7,5.7,4.9,9.1,6.6c1.7,0.8,3.5,1.3,5.4,1.5c1.9,0.2,3.7,0,5.5-0.6
				c1.8-0.6,3.5-1.5,5-2.6c1.5-1.2,2.9-2.5,4.1-3.9c0.1-0.1,0.3-0.1,0.4,0c0.1,0.1,0.1,0.3,0,0.4c0,0,0,0,0,0
				c-1.2,1.5-2.6,3-4.1,4.2c-1.5,1.3-3.2,2.3-5.1,3c-1.9,0.7-3.9,1-5.9,0.9c-2-0.1-4-0.6-5.9-1.4c-3.7-1.6-7-3.8-9.9-6.5
				c-2.9-2.7-5.6-5.7-7.9-8.9c-0.4-0.6-0.2-1.3,0.3-1.7C130.4,133.6,131.2,133.8,131.6,134.3L131.6,134.3z"/>
			<path class="st14" d="M97,148c2.9,2.3,6.3,3.8,10,4.4c3.5,0.6,7.2-0.2,10.2-2.2c1.5-1,2.9-2.1,4.1-3.5c0.6-0.6,1.2-1.4,1.7-2.1
				s1.1-1.5,1.5-2.2c1-1.6,1.9-3.2,2.6-4.8c0.4-0.8,0.8-1.7,1.1-2.5s0.5-1.8,1.4-2.4c0.4-0.3,1.1-0.2,1.4,0.2c0,0,0,0.1,0.1,0.1
				c0.1,0.1,0.1,0.2,0.1,0.3c0.2,1.1-0.4,1.9-0.8,2.8s-0.9,1.7-1.3,2.6c-0.9,1.7-1.9,3.4-2.9,4.9c-0.5,0.8-1.1,1.6-1.7,2.3
				s-1.2,1.5-1.9,2.2c-1.4,1.4-2.9,2.6-4.6,3.6c-3.4,2-7.4,2.7-11.3,1.9c-1.9-0.4-3.7-1.1-5.4-2c-1.7-0.9-3.2-2-4.6-3.3
				c-0.1-0.1-0.1-0.2,0-0.3c0,0,0,0,0,0C96.8,148,96.9,148,97,148L97,148z"/>
			<path class="st14" d="M119.3,130.2c-0.3-0.9-0.1-1.9,0.6-2.6c1.5-1.4,4.6-3.6,10.4-3.6s8.6,2,9.9,3.4c0.6,0.7,0.8,1.8,0.4,2.6
				c-0.5,1.2-1.7,2-3,2c-2.1,0-4.1,0.9-5.4,2.6c-0.1,0.1-0.2,0.2-0.3,0.4h-0.1c-1.2,1.1-3,1-4.1-0.2c0,0,0-0.1-0.1-0.1
				c0,0-1.2-2-5.6-2.4C120.9,132.3,119.7,131.5,119.3,130.2L119.3,130.2z M142.9,160.8c-0.3,1.1-0.8,2.2-1.6,3.1
				c-0.8,0.9-1.7,1.7-2.7,2.4c-1,0.6-2.2,1.1-3.3,1.4c-1.2,0.3-2.4,0.4-3.6,0.4c-2.4-0.1-4.7-0.8-6.7-2.1c-2-1.2-3.6-3-4.5-5.2
				c-0.1-0.2,0-0.4,0.2-0.5c0.2-0.1,0.4,0,0.5,0.1c1.3,1.6,3,2.9,4.9,3.8c1.8,0.9,3.8,1.4,5.8,1.5c2,0.1,4-0.3,5.8-1.2
				c0.9-0.4,1.7-1,2.5-1.6c0.8-0.7,1.4-1.5,2-2.3c0.1-0.2,0.4-0.2,0.6-0.1C142.9,160.4,143,160.6,142.9,160.8L142.9,160.8z"/>
			<path class="st21" d="M121.2,160.9c0,0,0.4,11.9,10.4,11.7c9.7-0.2,10.9-11.3,10.9-11.3c-2.4,3-6,4.8-9.8,4.9
				C126.4,166.1,121.2,160.9,121.2,160.9L121.2,160.9z"/>
			<path class="st14" d="M145.5,137.7c4.9-1,9.9-1.5,14.9-1.7c5-0.2,10,0.1,14.9,0.9c4.9,0.8,9.7,2.3,14.2,4.4
				c4.5,2.2,8.4,5.4,11.5,9.3c-3.2-3.8-7.2-6.8-11.7-8.9c-4.5-2-9.2-3.4-14.1-4c-4.9-0.6-9.8-0.8-14.7-0.5c-4.9,0.3-9.8,1-14.5,2.1
				c-0.4,0.1-0.9-0.2-1-0.6S145.1,137.8,145.5,137.7L145.5,137.7z M173.9,129.6c-8.4,0.3-16.8,1.8-24.7,4.5c-0.4,0.2-0.9,0-1.1-0.5
				c-0.2-0.4,0-0.9,0.5-1.1c0,0,0,0,0.1,0h0.1C156.9,130.3,165.4,129.3,173.9,129.6L173.9,129.6z M147.8,141.5
				c2.5-0.4,5.2-0.4,7.7,0.1c2.5,0.6,4.8,1.5,7,2.8c2.1,1.3,4.2,2.8,6,4.5c1.8,1.7,3.5,3.5,5,5.5c-1.6-1.9-3.4-3.6-5.3-5.2
				c-1.9-1.6-4-2.9-6.1-4.1c-2.2-1.1-4.5-1.9-6.9-2.3c-2.4-0.3-4.8-0.3-7.1,0.3H148c-0.4,0.1-0.9-0.1-1-0.6s0.1-0.9,0.6-1
				C147.6,141.5,147.7,141.5,147.8,141.5L147.8,141.5z M116.6,141.8c-4.9-1-9.8-1.9-14.7-2.5c-4.9-0.6-9.9-0.8-14.9-0.5
				c-5,0.2-9.9,1.3-14.5,3.2c-4.6,1.9-8.7,5-11.7,9c3-4.1,7-7.3,11.6-9.3c4.6-2,9.5-3.3,14.6-3.7c5-0.4,10.1-0.4,15.1,0.1
				c5,0.4,10,1.3,14.9,2.1c0.4,0.1,0.7,0.5,0.7,0.9c0,0,0,0,0,0C117.5,141.6,117,141.9,116.6,141.8
				C116.6,141.8,116.6,141.8,116.6,141.8L116.6,141.8z M87.9,132.2c8.7-1.6,17.7-0.5,25.7,3.1c0.4,0.2,0.6,0.7,0.4,1.1c0,0,0,0,0,0
				c-0.2,0.4-0.7,0.6-1.1,0.4H113C105.3,132.8,96.6,131.2,87.9,132.2L87.9,132.2z M114.4,145.7c-1.1-0.3-2.3-0.5-3.5-0.6
				c-1.2,0-2.4,0.1-3.6,0.3c-2.4,0.5-4.7,1.5-6.7,2.8c-2.1,1.3-4.1,2.8-5.9,4.5c-1.8,1.7-3.5,3.5-5,5.5c1.4-2.1,3-4,4.8-5.8
				c1.7-1.8,3.7-3.5,5.8-4.9c2.1-1.5,4.4-2.6,6.9-3.3c1.3-0.3,2.5-0.5,3.9-0.6c1.3,0,2.6,0.1,3.9,0.4c0.4,0.1,0.8,0.5,0.7,0.9
				c-0.1,0.4-0.5,0.8-0.9,0.7c0,0-0.1,0-0.1,0L114.4,145.7L114.4,145.7z"/>
		</g>
	</g>
</g>
</svg>
