<?xml version="1.0" encoding="utf-8"?>
<!-- Generator: Adobe Illustrator 25.0.0, SVG Export Plug-In . SVG Version: 6.00 Build 0)  -->
<svg version="1.1" id="Layer_1" xmlns="http://www.w3.org/2000/svg" xmlns:xlink="http://www.w3.org/1999/xlink" x="0px" y="0px"
	 viewBox="0 0 173.6 46" style="enable-background:new 0 0 173.6 46;" xml:space="preserve">
<style type="text/css">
	.st0{fill:#2C414C;}
	.st1{fill:#3DD94B;}
	.st2{fill:#B6C0CC;}
</style>
<g id="QKWnmo_4_">
	<g>
		<g>
			<path class="st0" d="M35.9,19.5c-1.6,0.9-3.2,1.8-4.8,2.7c-1.5-3.3-2.9-6.6-4.4-9.9c-0.3,0.8-0.6,1.4-0.9,2.1
				c-1.4,3.1-2.7,6.3-4.1,9.4c-0.5,1.2-1.1,2.4-1.6,3.6c-0.1,0.1-0.2,0.3-0.3,0.3c-3.3,1.5-6.6,3-10,4c-1.6,0.5-3.2,0.8-4.8,0.9
				c-0.9,0.1-1.8,0-2.6-0.3c-1.1-0.4-1.5-1.3-1.1-2.4c0.4-0.9,1-1.6,1.7-2.3C4.7,26.2,6.7,25,8.8,24c1.2-0.6,2.5-1.1,3.8-1.6v0.1
				c-0.1,0.1-0.2,0.1-0.3,0.2c-1.8,0.9-3.6,1.8-5.1,3.1c-0.5,0.4-1,0.9-1.4,1.4c-0.2,0.3-0.5,0.6-0.3,1.1c0.2,0.4,0.6,0.4,1,0.4
				c1.1,0,2.1-0.2,3.1-0.6c1.6-0.6,3.2-1.2,4.8-1.9c0.2-0.1,0.4-0.4,0.5-0.6c1.1-2.5,2.2-5,3.3-7.4c1.5-3.3,2.9-6.6,4.4-9.8
				C23.1,7,24,6,25.4,5.5c2.1-0.7,4.1,0.1,5.1,2.1c0.7,1.3,1.2,2.6,1.8,3.9c1.2,2.6,2.3,5.1,3.4,7.7C35.8,19.3,35.8,19.4,35.9,19.5z
				"/>
			<path class="st1" d="M37.6,14.1c2.2-0.9,4.3-1.7,6.5-2.3c1.1-0.3,2.2-0.4,3.2-0.5c0.6-0.1,1.3,0,1.9,0.1c1,0.2,1.4,1,1.1,2
				c-0.3,0.9-0.9,1.6-1.5,2.3c-1.7,1.9-3.7,3.4-5.7,4.8c-1.5,1.1-3.1,2.1-4.6,3.1c-0.5,0.3-0.5,0.3-0.3,0.9
				c1.8,4.1,3.6,8.1,5.4,12.2c0.2,0.5,0.4,0.9,0.6,1.5c-0.2,0-0.3,0-0.4,0c-1.7,0-3.5,0-5.2,0c-0.3,0-0.4-0.1-0.6-0.4
				c-1.6-3.6-3.2-7.3-4.8-10.9c0-0.1-0.1-0.1-0.1-0.2c-7.5,4.3-15.3,8-23.3,11.5c0.1-0.2,0.1-0.3,0.2-0.4c0.7-1.7,1.5-3.4,2.2-5
				c0.1-0.2,0.3-0.4,0.5-0.5c4.2-1.9,8.5-3.7,12.6-5.8s8.2-4.2,12.1-6.6c1.8-1.1,3.5-2.3,5.2-3.6c0.6-0.4,1.1-1,1.6-1.6
				c0.2-0.2,0.3-0.4,0.3-0.6c0.1-0.4,0-0.7-0.4-0.9c-0.3-0.1-0.7-0.2-1-0.2c-1.8-0.1-3.4,0.4-5.1,1c-0.1,0-0.2,0.1-0.3,0.1
				C37.7,14.1,37.7,14.1,37.6,14.1z"/>
		</g>
	</g>
</g>
<g>
	<path class="st0" d="M61.1,15.7c0.5-0.1,0.9-0.2,1.2-0.3c0.4-0.2,0.6-0.5,0.6-0.8c0-0.5-0.2-0.8-0.5-0.9c-0.3-0.2-0.8-0.3-1.4-0.3
		c-0.7,0-1.2,0.2-1.5,0.5c-0.2,0.3-0.3,0.6-0.4,1h-2.8c0.1-1,0.3-1.8,0.8-2.4c0.8-1,2.1-1.5,4-1.5c1.2,0,2.3,0.2,3.3,0.7
		s1.4,1.4,1.4,2.7v5.1c0,0.4,0,0.8,0,1.3c0,0.4,0.1,0.6,0.2,0.8s0.2,0.2,0.4,0.3v0.4h-3.2c-0.1-0.2-0.2-0.4-0.2-0.6s0-0.3,0-0.6
		c-0.4,0.4-0.9,0.8-1.4,1.1c-0.6,0.4-1.3,0.5-2.1,0.5c-1,0-1.9-0.3-2.5-0.9c-0.7-0.6-1-1.4-1-2.5c0-1.4,0.5-2.4,1.6-3
		c0.6-0.3,1.4-0.6,2.6-0.7L61.1,15.7z M62.9,17c-0.2,0.1-0.4,0.2-0.6,0.3c-0.2,0.1-0.5,0.1-0.8,0.2l-0.7,0.1
		c-0.6,0.1-1.1,0.2-1.3,0.4c-0.5,0.3-0.7,0.7-0.7,1.2s0.1,0.9,0.4,1.1c0.3,0.2,0.6,0.3,1,0.3c0.6,0,1.2-0.2,1.8-0.6s0.8-1,0.8-2
		L62.9,17L62.9,17z"/>
	<path class="st0" d="M75.2,11.3h3.1l-4,11.2h-3.1l-4-11.2h3.3l2.3,8.2L75.2,11.3z"/>
	<path class="st0" d="M84.5,15.7c0.5-0.1,0.9-0.2,1.2-0.3c0.4-0.2,0.6-0.5,0.6-0.8c0-0.5-0.2-0.8-0.5-0.9c-0.3-0.2-0.8-0.3-1.4-0.3
		c-0.7,0-1.2,0.2-1.5,0.5c-0.2,0.3-0.3,0.6-0.4,1h-2.8c0.1-1,0.3-1.8,0.8-2.4c0.8-1,2.1-1.5,4-1.5c1.2,0,2.3,0.2,3.3,0.7
		s1.4,1.4,1.4,2.7v5.1c0,0.4,0,0.8,0,1.3c0,0.4,0.1,0.6,0.2,0.8s0.2,0.2,0.4,0.3v0.4h-3.2c-0.1-0.2-0.2-0.4-0.2-0.6
		s-0.1-0.4-0.1-0.7c-0.4,0.4-0.9,0.8-1.4,1.1c-0.6,0.4-1.3,0.5-2.1,0.5c-1,0-1.9-0.3-2.5-0.9c-0.7-0.6-1-1.4-1-2.5
		c0-1.4,0.5-2.4,1.6-3c0.6-0.3,1.4-0.6,2.6-0.7L84.5,15.7z M86.3,17c-0.2,0.1-0.4,0.2-0.6,0.3c-0.2,0.1-0.5,0.1-0.8,0.2l-0.7,0.1
		c-0.6,0.1-1.1,0.2-1.3,0.4c-0.5,0.3-0.7,0.7-0.7,1.2s0.1,0.9,0.4,1.1s0.6,0.3,1,0.3c0.6,0,1.2-0.2,1.8-0.6s0.8-1,0.8-2L86.3,17
		L86.3,17z"/>
	<path class="st0" d="M100.7,11.9c0.7,0.6,1.1,1.6,1.1,3v7.5h-3v-6.8c0-0.6-0.1-1-0.2-1.4c-0.3-0.6-0.8-0.9-1.6-0.9
		c-1,0-1.7,0.4-2,1.3c-0.2,0.4-0.3,1-0.3,1.7v6h-2.9v-11h2.8v1.6c0.4-0.6,0.7-1,1.1-1.2c0.6-0.5,1.4-0.7,2.3-0.7
		C99.1,11,100,11.3,100.7,11.9z"/>
	<path class="st0" d="M112.4,15c-0.2-0.8-0.6-1.4-1.2-1.9c-0.5-0.5-1.2-0.7-2.1-0.7c-0.6,0-1.2,0.1-1.7,0.4
		c-0.5,0.3-0.8,0.6-1.1,1.1s-0.5,0.9-0.7,1.5c-0.2,0.6-0.2,1.1-0.2,1.7s0.1,1.1,0.2,1.7c0.1,0.5,0.3,1,0.6,1.5
		c0.3,0.4,0.7,0.8,1.1,1c0.5,0.3,1,0.4,1.7,0.4c0.9,0,1.7-0.3,2.3-0.8c0.6-0.5,0.9-1.2,1.1-2.1h1.3c-0.1,0.6-0.3,1.2-0.5,1.6
		c-0.2,0.5-0.6,0.9-0.9,1.3s-0.8,0.6-1.4,0.8s-1.1,0.3-1.8,0.3c-0.9,0-1.6-0.1-2.2-0.4s-1.1-0.7-1.6-1.2c-0.4-0.5-0.7-1.1-0.9-1.8
		c-0.2-0.7-0.3-1.4-0.3-2.2c0-0.8,0.1-1.5,0.3-2.2c0.2-0.7,0.5-1.3,1-1.8c0.4-0.5,0.9-1,1.6-1.3c0.6-0.3,1.3-0.5,2.2-0.5
		c1.3,0,2.3,0.3,3.1,0.9c0.8,0.6,1.3,1.5,1.5,2.8L112.4,15L112.4,15z"/>
	<path class="st0" d="M116.4,22.5V7.3h1.3v5.8c0.5-0.5,1-1,1.6-1.3c0.5-0.3,1.2-0.5,1.9-0.5c0.7,0,1.3,0.1,1.9,0.3s1.1,0.6,1.4,1.2
		c0.3,0.4,0.4,0.8,0.5,1.2c0,0.4,0.1,0.8,0.1,1.3v7.1h-1.3v-7.1c0-1-0.2-1.7-0.7-2.2c-0.4-0.5-1.2-0.7-2.2-0.7
		c-0.4,0-0.7,0.1-1.1,0.2s-0.6,0.3-0.9,0.5s-0.5,0.4-0.7,0.7s-0.3,0.5-0.4,0.8c-0.1,0.4-0.2,0.7-0.2,1s0,0.7,0,1.1v5.9L116.4,22.5
		L116.4,22.5z"/>
	<path class="st0" d="M133,16.1c0.2,0,0.5-0.1,0.9-0.1c0.3-0.1,0.6-0.1,0.8-0.2c0.2-0.1,0.3-0.3,0.4-0.5c0-0.2,0.1-0.4,0.1-0.6
		c0-0.6-0.2-1.2-0.6-1.6c-0.4-0.4-1.1-0.6-2.1-0.6c-0.4,0-0.8,0-1.2,0.1s-0.7,0.2-1,0.4s-0.5,0.4-0.7,0.8c-0.2,0.3-0.3,0.7-0.3,1.2
		H128c0-0.6,0.2-1.2,0.4-1.6c0.3-0.5,0.6-0.8,1-1.1s0.9-0.5,1.4-0.6s1.1-0.2,1.7-0.2c0.5,0,1.1,0.1,1.5,0.2c0.5,0.1,0.9,0.3,1.3,0.6
		c0.4,0.3,0.6,0.6,0.8,1s0.3,1,0.3,1.6v5.9c0,0.5,0.1,0.8,0.3,0.9s0.5,0.1,1.1-0.1v1c-0.1,0-0.2,0.1-0.4,0.1
		c-0.2,0.1-0.4,0.1-0.6,0.1c-0.2,0-0.4,0-0.6-0.1c-0.2,0-0.4-0.1-0.5-0.2s-0.2-0.2-0.3-0.4s-0.1-0.3-0.2-0.5c0-0.2,0-0.4,0-0.6
		c-0.5,0.6-1.1,1-1.8,1.3s-1.4,0.5-2.2,0.5c-0.5,0-0.9-0.1-1.4-0.2c-0.4-0.1-0.8-0.3-1.2-0.6s-0.6-0.6-0.8-1s-0.3-0.8-0.3-1.4
		c0-1.8,1.3-2.9,3.8-3.3L133,16.1z M135.2,16.7c-0.5,0.2-1.1,0.4-1.6,0.4c-0.5,0.1-1.1,0.1-1.6,0.2c-1,0.1-1.7,0.3-2.3,0.7
		c-0.5,0.4-0.8,0.9-0.8,1.7c0,0.3,0.1,0.6,0.2,0.9c0.1,0.2,0.3,0.4,0.5,0.6s0.5,0.3,0.8,0.4s0.6,0.1,0.9,0.1c0.5,0,1-0.1,1.5-0.2
		s0.9-0.3,1.3-0.6c0.4-0.3,0.7-0.6,0.9-1s0.3-0.9,0.3-1.4L135.2,16.7L135.2,16.7z"/>
	<path class="st0" d="M141,22.5h-1.3V11.6h1.3v1.5c0.5-0.5,1-1,1.6-1.3c0.5-0.3,1.2-0.5,1.9-0.5s1.3,0.1,1.9,0.3
		c0.6,0.2,1.1,0.6,1.4,1.2c0.3,0.4,0.4,0.8,0.5,1.2c0,0.4,0.1,0.8,0.1,1.3v7.1h-1.3v-7.1c0-1-0.2-1.7-0.7-2.2
		c-0.4-0.5-1.2-0.7-2.2-0.7c-0.4,0-0.7,0.1-1.1,0.2s-0.6,0.3-0.9,0.5c-0.3,0.2-0.5,0.4-0.7,0.7s-0.3,0.5-0.4,0.8
		c-0.1,0.4-0.2,0.7-0.2,1s0,0.7,0,1.1L141,22.5L141,22.5z"/>
	<path class="st0" d="M159.8,11.6h1.3v9.8c0,0.7-0.1,1.4-0.2,2.1c-0.1,0.7-0.4,1.2-0.8,1.8s-0.9,0.9-1.6,1.2
		c-0.7,0.3-1.5,0.5-2.5,0.5c-0.8,0-1.5-0.1-2.1-0.3s-1-0.5-1.4-0.8s-0.6-0.6-0.8-1s-0.3-0.7-0.3-1h1.3c0.1,0.4,0.3,0.7,0.5,1
		s0.5,0.5,0.7,0.6s0.6,0.2,1,0.3c0.4,0.1,0.7,0.1,1.1,0.1c0.9,0,1.5-0.1,2.1-0.4s0.9-0.7,1.2-1.2s0.4-1,0.5-1.6s0.1-1.2,0.1-1.8
		c-0.4,0.7-1,1.2-1.7,1.5s-1.4,0.5-2.2,0.5s-1.5-0.2-2.2-0.5c-0.6-0.3-1.1-0.7-1.5-1.3c-0.4-0.5-0.7-1.1-0.9-1.8s-0.3-1.4-0.3-2.2
		c0-0.8,0.1-1.5,0.3-2.2s0.5-1.3,0.9-1.8s0.9-0.9,1.5-1.2s1.4-0.4,2.2-0.4c0.3,0,0.7,0,1.1,0.1c0.4,0.1,0.7,0.2,1.1,0.4
		c0.3,0.2,0.7,0.4,0.9,0.7c0.3,0.3,0.5,0.6,0.7,0.9l0,0L159.8,11.6L159.8,11.6z M159.8,17.1c0-0.7-0.1-1.3-0.2-1.8
		c-0.2-0.6-0.4-1.1-0.7-1.5s-0.7-0.7-1.2-1c-0.5-0.2-1-0.4-1.6-0.4c-0.5,0-1,0.1-1.5,0.3s-0.8,0.5-1.2,0.8s-0.6,0.8-0.8,1.3
		s-0.3,1.1-0.3,1.8c0,0.7,0,1.3,0.2,1.9c0.1,0.6,0.4,1.1,0.7,1.6c0.3,0.4,0.7,0.8,1.2,1.1c0.5,0.3,1,0.4,1.7,0.4
		c0.6,0,1.1-0.1,1.5-0.4c0.5-0.2,0.8-0.6,1.2-1s0.6-0.9,0.7-1.4C159.7,18.3,159.8,17.7,159.8,17.1z"/>
	<path class="st0" d="M165,17.3c0,0.6,0.1,1.1,0.2,1.7c0.2,0.5,0.4,1,0.7,1.4s0.7,0.7,1.1,0.9s1,0.3,1.6,0.3c0.8,0,1.5-0.2,2.1-0.7
		c0.6-0.4,1-1,1.2-1.8h1.4c-0.2,0.5-0.4,1-0.6,1.4s-0.6,0.8-0.9,1.2c-0.4,0.3-0.8,0.6-1.3,0.8c-0.5,0.2-1.1,0.3-1.8,0.3
		c-0.9,0-1.6-0.1-2.2-0.4s-1.1-0.7-1.6-1.2c-0.4-0.5-0.7-1.1-0.9-1.8c-0.2-0.7-0.3-1.4-0.3-2.2s0.1-1.5,0.3-2.2s0.6-1.3,1-1.8
		s0.9-0.9,1.6-1.2c0.6-0.3,1.3-0.5,2.1-0.5c1.5,0,2.7,0.5,3.5,1.5c0.9,1,1.3,2.5,1.3,4.5H165V17.3z M172.1,16.3c0-0.5-0.1-1-0.2-1.5
		c-0.1-0.5-0.4-0.9-0.7-1.2s-0.6-0.6-1.1-0.8c-0.4-0.2-0.9-0.3-1.5-0.3s-1.1,0.1-1.5,0.3s-0.8,0.5-1.1,0.8c-0.3,0.4-0.5,0.8-0.7,1.2
		c-0.2,0.5-0.3,1-0.4,1.5H172.1z"/>
</g>
<g>
	<path class="st2" d="M59.5,33.8L59.3,34c-0.1,0.4-0.2,0.8-0.5,1s-0.6,0.4-1.1,0.4c-0.3,0-0.6-0.1-0.8-0.2c-0.2-0.1-0.4-0.3-0.5-0.5
		s-0.2-0.4-0.3-0.7C56,33.7,56,33.5,56,33.2s0-0.6,0.1-0.8c0.1-0.3,0.2-0.5,0.3-0.7s0.3-0.4,0.5-0.5s0.5-0.2,0.8-0.2
		c0.4,0,0.7,0.1,1,0.3c0.3,0.2,0.4,0.5,0.6,0.9l0.2,0.1h0.7l0.2-0.2c-0.1-0.7-0.4-1.3-0.9-1.6c-0.5-0.3-1-0.5-1.8-0.5
		c-0.5,0-0.9,0.1-1.3,0.3c-0.4,0.2-0.7,0.4-0.9,0.7c-0.2,0.3-0.4,0.6-0.5,1s-0.2,0.8-0.2,1.2c0,0.4,0.1,0.8,0.2,1.2
		c0.1,0.4,0.3,0.7,0.5,1s0.5,0.5,0.9,0.7s0.8,0.2,1.3,0.2c0.4,0,0.7-0.1,1.1-0.2c0.3-0.1,0.6-0.3,0.8-0.5s0.4-0.4,0.6-0.7
		c0.1-0.3,0.2-0.6,0.3-0.9l-0.2-0.2C60.3,33.8,59.5,33.8,59.5,33.8z"/>
	<path class="st2" d="M66.1,30.9c-0.2-0.3-0.5-0.6-0.9-0.7c-0.3-0.2-0.7-0.2-1-0.2c-0.4,0-0.8,0.1-1.2,0.3c-0.2,0.1-0.4,0.2-0.5,0.4
		v-2.5L62.3,28h-0.7l-0.2,0.2V36l0.2,0.2h0.7l0.2-0.2v-3.1c0-0.2,0-0.4,0-0.5s0.1-0.3,0.1-0.5c0-0.1,0.1-0.3,0.2-0.4
		c0.1-0.1,0.2-0.2,0.3-0.3c0.1-0.1,0.3-0.2,0.4-0.2c0.2,0,0.4,0,0.5,0c0.5,0,0.8,0.1,1,0.3c0.2,0.2,0.3,0.6,0.3,1V36l0.2,0.2h0.7
		l0.2-0.2v-3.7c0-0.2,0-0.5,0-0.7C66.4,31.3,66.3,31.1,66.1,30.9z"/>
	<path class="st2" d="M72.7,35.4L72.7,35.4c0,0-0.1-0.1-0.1-0.3V32c0-0.4-0.1-0.7-0.2-0.9c-0.1-0.3-0.3-0.5-0.5-0.6
		c-0.2-0.2-0.5-0.3-0.7-0.3C70.9,30,70.6,30,70.3,30c-0.3,0-0.6,0-0.9,0.1s-0.6,0.2-0.8,0.4c-0.2,0.2-0.4,0.4-0.6,0.6
		c-0.1,0.3-0.2,0.6-0.3,0.9l0.2,0.2h0.7l0.2-0.2c0-0.2,0.1-0.4,0.2-0.5s0.2-0.2,0.3-0.3c0.1-0.1,0.3-0.1,0.4-0.2
		c0.2,0,0.4-0.1,0.6-0.1c0.5,0,0.8,0.1,1,0.3c0.2,0.2,0.3,0.4,0.3,0.7c0,0.1,0,0.2,0,0.3c0,0.1,0,0.1-0.1,0.1s-0.2,0.1-0.4,0.1
		c-0.2,0-0.3,0.1-0.4,0.1l-0.9,0.1c-1.5,0.2-2.2,0.8-2.2,1.9c0,0.3,0.1,0.6,0.2,0.8s0.3,0.4,0.5,0.6c0.2,0.2,0.4,0.3,0.7,0.3
		c0.3,0.1,0.5,0.1,0.8,0.1c0.5,0,0.9-0.1,1.3-0.3c0.3-0.1,0.5-0.3,0.7-0.5c0,0.1,0,0.1,0.1,0.2c0.1,0.1,0.1,0.2,0.2,0.3
		s0.2,0.1,0.4,0.1c0.1,0,0.2,0,0.4,0c0.1,0,0.2,0,0.4-0.1l0.2-0.1l0.1-0.2v-0.5L73,35.3C72.9,35.4,72.8,35.4,72.7,35.4z M71.5,33.9
		c0,0.2-0.1,0.5-0.2,0.6c-0.1,0.2-0.2,0.3-0.4,0.5c-0.2,0.1-0.4,0.2-0.6,0.3s-0.5,0.1-0.7,0.1c-0.1,0-0.3,0-0.4-0.1
		c-0.1,0-0.2-0.1-0.3-0.2c-0.1-0.1-0.2-0.2-0.2-0.3c-0.1-0.1-0.1-0.2-0.1-0.4c0-0.3,0.1-0.5,0.3-0.7c0.3-0.2,0.6-0.3,1.1-0.3
		c0.3,0,0.6-0.1,0.9-0.1c0.2,0,0.4-0.1,0.6-0.1C71.5,33.2,71.5,33.9,71.5,33.9z"/>
	<path class="st2" d="M78.7,30.9c-0.2-0.3-0.5-0.6-0.9-0.7C77.5,30,77.1,30,76.7,30s-0.8,0.1-1.2,0.3c-0.2,0.1-0.4,0.2-0.5,0.4v-0.3
		l-0.2-0.2h-0.7L74,30.3V36l0.2,0.2h0.7L75,36v-3.1c0-0.2,0-0.4,0-0.5s0.1-0.3,0.1-0.5c0-0.1,0.1-0.3,0.2-0.4s0.2-0.2,0.3-0.3
		c0.1-0.1,0.3-0.2,0.4-0.2c0.1-0.1,0.3-0.1,0.5-0.1c0.5,0,0.8,0.1,1,0.3c0.2,0.2,0.3,0.6,0.3,1V36l0.2,0.2h0.7L79,36v-3.7
		c0-0.2,0-0.5,0-0.7C78.9,31.3,78.8,31.1,78.7,30.9z"/>
	<path class="st2" d="M85,30.1l-0.2,0.2v0.4c0,0,0,0-0.1-0.1c-0.2-0.2-0.4-0.3-0.6-0.4S83.7,30,83.5,30c-0.2,0-0.4,0-0.6,0
		c-0.5,0-0.9,0.1-1.3,0.2c-0.4,0.2-0.7,0.4-0.9,0.7c-0.2,0.3-0.4,0.6-0.5,1c-0.1,0.4-0.2,0.8-0.2,1.2s0.1,0.8,0.2,1.2s0.3,0.7,0.5,1
		s0.5,0.5,0.9,0.7s0.8,0.3,1.3,0.3c0.4,0,0.9-0.1,1.3-0.3c0.2-0.1,0.4-0.2,0.6-0.4c0,0.1,0,0.2,0,0.4c0,0.3-0.1,0.5-0.3,0.8
		c-0.1,0.2-0.3,0.4-0.6,0.5c-0.2,0.1-0.6,0.2-1,0.2c-0.2,0-0.4,0-0.6,0s-0.3-0.1-0.5-0.1c-0.1-0.1-0.2-0.2-0.3-0.3
		c-0.1-0.1-0.2-0.3-0.2-0.4l-0.2-0.2h-0.7l-0.2,0.2c0,0.2,0.1,0.4,0.2,0.6c0.1,0.2,0.3,0.4,0.5,0.6c0.2,0.2,0.5,0.3,0.8,0.4
		c0.3,0.1,0.7,0.2,1.2,0.2c0.6,0,1.1-0.1,1.5-0.3s0.7-0.4,0.9-0.7c0.2-0.3,0.4-0.6,0.5-1s0.1-0.7,0.1-1.1v-5.1l-0.2-0.2
		C85.7,30.1,85,30.1,85,30.1z M84.6,34.1c-0.1,0.3-0.2,0.5-0.4,0.7c-0.1,0.2-0.3,0.3-0.6,0.5c-0.2,0.1-0.5,0.2-0.7,0.2
		c-0.3,0-0.6-0.1-0.8-0.2c-0.2-0.1-0.4-0.3-0.6-0.5s-0.3-0.5-0.3-0.8c-0.1-0.3-0.1-0.6-0.1-1c0-0.3,0-0.6,0.1-0.9
		c0.1-0.2,0.2-0.5,0.4-0.6c0.2-0.2,0.4-0.3,0.6-0.4C82.5,31,82.7,31,83,31s0.5,0.1,0.8,0.2c0.2,0.1,0.4,0.3,0.6,0.5s0.3,0.4,0.3,0.7
		c0.1,0.3,0.1,0.6,0.1,0.9C84.8,33.5,84.7,33.8,84.6,34.1z"/>
	<path class="st2" d="M92.5,33.3c0-1.1-0.2-1.9-0.7-2.5s-1.2-0.9-2.1-0.9c-0.5,0-0.9,0.1-1.2,0.3c-0.4,0.2-0.7,0.4-0.9,0.7
		c-0.2,0.3-0.4,0.6-0.6,1c-0.1,0.4-0.2,0.8-0.2,1.2s0.1,0.8,0.2,1.2s0.3,0.7,0.5,1s0.5,0.5,0.9,0.7s0.8,0.2,1.3,0.2
		c0.4,0,0.7-0.1,1-0.2c0.3-0.1,0.6-0.3,0.8-0.4c0.2-0.2,0.4-0.4,0.6-0.7c0.1-0.2,0.3-0.5,0.3-0.8l-0.2-0.3h-0.8L91.2,34
		c-0.1,0.4-0.3,0.7-0.6,0.9c-0.3,0.2-0.6,0.3-1,0.3c-0.3,0-0.5-0.1-0.8-0.2c-0.2-0.1-0.4-0.3-0.5-0.4C88.2,34.4,88,34.2,88,34
		c0-0.1,0-0.3,0-0.5h4.3L92.5,33.3z M88,32.6c0-0.2,0.1-0.3,0.1-0.5c0.1-0.2,0.2-0.4,0.4-0.6c0.1-0.2,0.3-0.3,0.5-0.4
		s0.4-0.1,0.7-0.1c0.3,0,0.5,0,0.7,0.1s0.4,0.2,0.5,0.4c0.1,0.2,0.2,0.4,0.3,0.6c0.1,0.2,0.1,0.3,0.1,0.5H88z"/>
	<path class="st2" d="M104.5,30.8c-0.1-0.2-0.4-0.4-0.6-0.6c-0.3-0.1-0.6-0.2-1.1-0.2s-0.9,0.1-1.2,0.3c-0.3,0.1-0.5,0.3-0.7,0.6
		c0,0,0-0.1-0.1-0.1c-0.1-0.2-0.2-0.3-0.4-0.4c-0.1-0.1-0.3-0.2-0.5-0.3C99.7,30,99.5,30,99.2,30c-0.4,0-0.8,0.1-1.2,0.3
		c-0.2,0.1-0.3,0.2-0.5,0.3v-0.3l-0.2-0.2h-0.7l-0.2,0.2V36l0.2,0.2h0.7l0.2-0.2v-3.1c0-0.1,0-0.2,0-0.4c0-0.1,0-0.3,0.1-0.4
		c0-0.1,0.1-0.3,0.1-0.4s0.1-0.2,0.2-0.3c0.2-0.2,0.3-0.3,0.5-0.4s0.4-0.1,0.6-0.1c0.4,0,0.7,0.1,0.8,0.3c0.1,0.2,0.2,0.5,0.2,0.8v4
		l0.2,0.2h0.7l0.2-0.2v-3.1c0-0.1,0-0.2,0-0.4c0-0.1,0-0.3,0.1-0.4c0-0.1,0.1-0.3,0.1-0.4s0.1-0.2,0.2-0.3c0.2-0.2,0.3-0.3,0.5-0.4
		s0.4-0.1,0.6-0.1c0.4,0,0.7,0.1,0.8,0.3c0.1,0.2,0.2,0.5,0.2,0.8v4l0.2,0.2h0.7l0.2-0.2v-3.6c0-0.3,0-0.6-0.1-0.9
		C104.7,31.3,104.7,31,104.5,30.8z"/>
	<path class="st2" d="M110.7,30.9c-0.2-0.3-0.6-0.5-0.9-0.7c-0.4-0.2-0.8-0.3-1.3-0.3s-0.9,0.1-1.3,0.3c-0.4,0.2-0.7,0.4-0.9,0.7
		c-0.2,0.3-0.4,0.6-0.5,1s-0.2,0.8-0.2,1.2c0,0.5,0.1,1,0.2,1.4c0.2,0.4,0.4,0.7,0.6,1c0.3,0.3,0.6,0.5,0.9,0.6s0.7,0.2,1.1,0.2l0,0
		c0.4,0,0.8-0.1,1.2-0.2c0.4-0.2,0.7-0.4,0.9-0.7c0.3-0.3,0.5-0.6,0.6-1s0.2-0.8,0.2-1.3c0-0.4-0.1-0.8-0.2-1.2
		C111.2,31.5,111,31.2,110.7,30.9z M110.2,34c-0.1,0.3-0.2,0.5-0.3,0.7c-0.1,0.2-0.3,0.4-0.5,0.5s-0.5,0.2-0.8,0.2s-0.5-0.1-0.8-0.2
		c-0.2-0.1-0.4-0.2-0.5-0.4s-0.3-0.4-0.3-0.7c-0.1-0.3-0.1-0.6-0.1-0.9c0-0.3,0-0.6,0.1-0.8c0.1-0.3,0.2-0.5,0.3-0.7
		c0.1-0.2,0.3-0.4,0.5-0.5s0.5-0.2,0.8-0.2s0.6,0.1,0.8,0.2c0.2,0.1,0.4,0.3,0.5,0.4c0.1,0.2,0.2,0.4,0.3,0.7
		c0.1,0.3,0.1,0.6,0.1,0.9C110.3,33.5,110.3,33.7,110.2,34z"/>
	<path class="st2" d="M117,30.9c-0.2-0.3-0.5-0.6-0.9-0.7c-0.3-0.1-0.7-0.2-1.1-0.2s-0.8,0.1-1.2,0.3c-0.2,0.1-0.4,0.2-0.5,0.4v-0.3
		l-0.2-0.2h-0.7l-0.2,0.2V36l0.2,0.2h0.7l0.2-0.2v-3.1c0-0.2,0-0.4,0-0.5s0.1-0.3,0.1-0.5c0-0.1,0.1-0.3,0.2-0.4s0.2-0.2,0.3-0.3
		c0.1-0.1,0.3-0.2,0.4-0.2c0.1-0.1,0.3-0.1,0.5-0.1c0.5,0,0.8,0.1,1,0.3c0.2,0.2,0.3,0.6,0.3,1V36l0.2,0.2h0.7l0.2-0.2v-3.7
		c0-0.2,0-0.5,0-0.7C117.3,31.3,117.2,31.1,117,30.9z"/>
	<path class="st2" d="M123.9,33.3c0-1.1-0.2-1.9-0.7-2.5s-1.2-0.9-2.1-0.9c-0.5,0-0.9,0.1-1.2,0.3c-0.4,0.2-0.7,0.4-0.9,0.7
		c-0.2,0.3-0.4,0.6-0.6,1c-0.1,0.4-0.2,0.8-0.2,1.2s0.1,0.8,0.2,1.2s0.3,0.7,0.5,1s0.5,0.5,0.9,0.7s0.8,0.2,1.3,0.2
		c0.4,0,0.7-0.1,1-0.2c0.3-0.1,0.6-0.3,0.8-0.4c0.2-0.2,0.4-0.4,0.6-0.7c0.1-0.2,0.3-0.5,0.3-0.8l-0.2-0.3h-0.8l-0.2,0.2
		c-0.1,0.4-0.3,0.7-0.6,0.9c-0.3,0.2-0.6,0.3-1,0.3c-0.3,0-0.5-0.1-0.8-0.2c-0.2-0.1-0.4-0.3-0.5-0.4c-0.1-0.2-0.3-0.4-0.3-0.6
		c-0.1-0.2-0.1-0.4-0.1-0.6h4.3L123.9,33.3z M119.4,32.6c0-0.2,0.1-0.3,0.1-0.5c0.1-0.2,0.2-0.4,0.4-0.6c0.1-0.2,0.3-0.3,0.5-0.4
		s0.4-0.1,0.7-0.1c0.3,0,0.5,0,0.7,0.1s0.4,0.2,0.5,0.4c0.1,0.2,0.2,0.4,0.3,0.6c0.1,0.2,0.1,0.3,0.1,0.5H119.4z"/>
	<path class="st2" d="M129,30.1l-0.2,0.1l-1.7,4.4l-1.7-4.4l-0.2-0.1h-0.8l-0.2,0.3l2.2,5.7c-0.1,0.1-0.1,0.3-0.2,0.4
		c-0.1,0.2-0.1,0.3-0.2,0.5c-0.1,0.1-0.2,0.3-0.3,0.4c-0.1,0.1-0.2,0.1-0.3,0.1c-0.1,0-0.2,0-0.3,0h-0.3l-0.2,0.2v0.6l0.2,0.2
		c0.1,0,0.2,0,0.3,0.1c0.1,0,0.2,0,0.4,0c0.3,0,0.5-0.1,0.7-0.2c0.2-0.1,0.4-0.3,0.5-0.5s0.3-0.5,0.4-0.8s0.3-0.6,0.4-1l2.2-5.6
		l-0.2-0.3H129V30.1z"/>
	<path class="st2" d="M137.3,33c-0.3-0.1-0.6-0.2-0.9-0.3c-0.3-0.1-0.6-0.1-0.9-0.2c-0.3-0.1-0.5-0.2-0.6-0.3s-0.2-0.2-0.2-0.4
		c0-0.2,0.1-0.4,0.3-0.6c0.2-0.1,0.5-0.2,0.9-0.2s0.7,0.1,1,0.2c0.2,0.1,0.4,0.4,0.4,0.8l0.2,0.2h0.7l0.2-0.2
		c-0.1-0.7-0.4-1.2-0.8-1.5c-0.4-0.3-1-0.4-1.7-0.4s-1.3,0.2-1.7,0.5s-0.6,0.8-0.6,1.3c0,0.4,0.1,0.8,0.3,1s0.5,0.4,0.8,0.5
		s0.6,0.2,0.9,0.3c0.3,0.1,0.6,0.1,0.9,0.2c0.3,0.1,0.5,0.2,0.6,0.3s0.2,0.2,0.2,0.5c0,0.1,0,0.2-0.1,0.3c0,0.1-0.1,0.2-0.2,0.3
		c-0.1,0.1-0.2,0.1-0.4,0.2c-0.2,0.1-0.4,0.1-0.6,0.1c-0.5,0-0.8-0.1-1.1-0.3c-0.2-0.2-0.4-0.5-0.5-0.9l-0.2-0.2h-0.7l-0.2,0.2
		c0,0.3,0.1,0.6,0.2,0.8c0.1,0.3,0.3,0.5,0.5,0.7s0.5,0.3,0.8,0.5c0.3,0.1,0.6,0.2,1,0.2s0.7,0,1-0.1s0.6-0.2,0.8-0.3
		c0.2-0.2,0.4-0.4,0.6-0.6c0.1-0.2,0.2-0.5,0.2-0.8c0-0.4-0.1-0.7-0.3-1C137.8,33.3,137.6,33.1,137.3,33z"/>
	<path class="st2" d="M147.2,30.8c-0.1-0.2-0.4-0.4-0.6-0.6c-0.3-0.1-0.6-0.2-1.1-0.2s-0.9,0.1-1.2,0.3c-0.3,0.1-0.5,0.3-0.7,0.6
		c0,0,0-0.1-0.1-0.1c-0.1-0.2-0.2-0.3-0.4-0.4c-0.1-0.1-0.3-0.2-0.5-0.3c-0.2-0.1-0.5-0.1-0.8-0.1c-0.4,0-0.8,0.1-1.2,0.3
		c-0.2,0.1-0.3,0.2-0.5,0.3v-0.3l-0.2-0.2h-0.7l-0.2,0.2V36l0.2,0.2h0.7l0.2-0.2v-3.1c0-0.1,0-0.2,0-0.4c0-0.1,0-0.3,0.1-0.4
		c0-0.1,0.1-0.3,0.1-0.4s0.1-0.2,0.2-0.3c0.2-0.2,0.3-0.3,0.5-0.4s0.4-0.1,0.6-0.1c0.4,0,0.7,0.1,0.8,0.3c0.1,0.2,0.2,0.5,0.2,0.8v4
		l0.2,0.2h0.7l0.2-0.2v-3.1c0-0.1,0-0.2,0-0.4c0-0.1,0-0.3,0.1-0.4c0-0.1,0.1-0.3,0.1-0.4s0.1-0.2,0.2-0.3c0.2-0.2,0.3-0.3,0.5-0.4
		s0.4-0.1,0.6-0.1c0.4,0,0.7,0.1,0.8,0.3c0.1,0.2,0.2,0.5,0.2,0.8v4l0.2,0.2h0.7l0.2-0.2v-3.6c0-0.3,0-0.6-0.1-0.9
		C147.5,31.3,147.4,31,147.2,30.8z"/>
	<path class="st2" d="M153.7,35.4L153.7,35.4c0,0-0.1-0.1-0.1-0.3V32c0-0.4-0.1-0.7-0.2-0.9c-0.1-0.3-0.3-0.5-0.5-0.6
		c-0.2-0.2-0.5-0.3-0.7-0.3c-0.3-0.1-0.6-0.1-0.9-0.1c-0.3,0-0.7,0-0.9,0.1c-0.3,0.1-0.6,0.2-0.8,0.4c-0.2,0.2-0.4,0.4-0.6,0.6
		c-0.1,0.3-0.2,0.6-0.3,0.9l0.2,0.2h0.7l0.2-0.2c0-0.2,0.1-0.4,0.2-0.5c0.1-0.1,0.2-0.2,0.3-0.3c0.1-0.1,0.3-0.1,0.4-0.2
		c0.2,0,0.4-0.1,0.6-0.1c0.5,0,0.8,0.1,1,0.3c0.2,0.2,0.3,0.4,0.3,0.7c0,0.1,0,0.2,0,0.3s0,0.1-0.1,0.1s-0.2,0.1-0.4,0.1
		s-0.3,0.1-0.5,0.1l-0.9,0.1c-1.5,0.2-2.2,0.8-2.2,1.9c0,0.3,0.1,0.6,0.2,0.8c0.1,0.2,0.3,0.4,0.5,0.6c0.2,0.2,0.4,0.3,0.7,0.3
		c0.3,0.1,0.5,0.1,0.8,0.1c0.5,0,0.9-0.1,1.3-0.3c0.3-0.1,0.5-0.3,0.7-0.5c0,0.1,0,0.1,0.1,0.2c0.1,0.1,0.1,0.2,0.2,0.3
		c0.1,0.1,0.2,0.1,0.4,0.1c0.1,0,0.2,0,0.4,0c0.1,0,0.2,0,0.4-0.1l0.2-0.1l0.1-0.2v-0.5l-0.3-0.2C153.9,35.4,153.8,35.4,153.7,35.4z
		 M152.5,33.9c0,0.2-0.1,0.5-0.2,0.6c-0.1,0.2-0.2,0.3-0.4,0.5c-0.2,0.1-0.4,0.2-0.6,0.3c-0.2,0.1-0.5,0.1-0.7,0.1
		c-0.1,0-0.3,0-0.4-0.1c-0.1,0-0.2-0.1-0.3-0.2c-0.1-0.1-0.2-0.2-0.2-0.3c-0.1-0.1-0.1-0.2-0.1-0.4c0-0.3,0.1-0.5,0.3-0.7
		c0.3-0.2,0.6-0.3,1.1-0.3c0.3,0,0.6-0.1,0.9-0.1c0.2,0,0.4-0.1,0.6-0.1L152.5,33.9L152.5,33.9z"/>
	<path class="st2" d="M156.6,30.3c-0.2,0.1-0.3,0.2-0.4,0.4v-0.3l-0.2-0.2h-0.7l-0.2,0.2V36l0.2,0.2h0.7l0.2-0.2v-2.8
		c0-0.3,0-0.6,0.1-0.9c0.1-0.3,0.1-0.5,0.3-0.7c0.1-0.2,0.3-0.3,0.5-0.4s0.5-0.2,0.8-0.2l0,0l0.2-0.2v-0.7l-0.2-0.2
		C157.3,30,156.9,30.1,156.6,30.3z"/>
	<path class="st2" d="M160.7,35.4c-0.1,0-0.2,0-0.2,0c-0.1,0-0.2,0-0.3-0.1c0,0,0-0.1,0-0.2c0-0.1,0-0.2,0-0.3v-3.7h0.9l0.2-0.2
		v-0.6l-0.2-0.2h-0.9v-1.4l-0.2-0.2h-0.7l-0.2,0.2v1.4h-0.6l-0.2,0.2v0.6l0.2,0.2h0.6v4c0,0.5,0.1,0.8,0.3,1s0.5,0.3,0.9,0.3
		c0.2,0,0.4,0,0.5-0.1c0.1,0,0.2-0.1,0.3-0.1l0.2-0.2v-0.5l-0.3-0.2C160.9,35.3,160.8,35.3,160.7,35.4z"/>
	<path class="st2" d="M167.3,33.3c0-1.1-0.2-1.9-0.7-2.5s-1.2-0.9-2.1-0.9c-0.5,0-0.9,0.1-1.2,0.3c-0.4,0.2-0.7,0.4-0.9,0.7
		c-0.2,0.3-0.4,0.6-0.6,1c-0.1,0.4-0.2,0.8-0.2,1.2s0.1,0.8,0.2,1.2c0.1,0.4,0.3,0.7,0.5,1s0.5,0.5,0.9,0.7s0.8,0.2,1.3,0.2
		c0.4,0,0.7-0.1,1-0.2c0.3-0.1,0.6-0.3,0.8-0.4c0.2-0.2,0.4-0.4,0.6-0.7c0.1-0.2,0.3-0.5,0.3-0.8l-0.2-0.3h-0.8L166,34
		c-0.1,0.4-0.3,0.7-0.6,0.9s-0.6,0.3-1,0.3c-0.3,0-0.5-0.1-0.8-0.2c-0.2-0.1-0.4-0.3-0.5-0.4c-0.1-0.2-0.3-0.4-0.3-0.6
		c-0.1-0.2-0.1-0.4-0.1-0.6h4.3L167.3,33.3z M162.8,32.6c0-0.2,0.1-0.3,0.1-0.5c0.1-0.2,0.2-0.4,0.4-0.6c0.1-0.2,0.3-0.3,0.5-0.4
		s0.4-0.1,0.7-0.1s0.5,0,0.7,0.1s0.4,0.2,0.5,0.4c0.1,0.2,0.2,0.4,0.3,0.6s0.1,0.3,0.1,0.5H162.8z"/>
	<path class="st2" d="M169.7,30.3c-0.2,0.1-0.3,0.2-0.4,0.4v-0.3l-0.2-0.2h-0.7l-0.2,0.2V36l0.2,0.2h0.7l0.2-0.2v-2.8
		c0-0.3,0-0.6,0.1-0.9c0.1-0.3,0.1-0.5,0.3-0.7c0.1-0.2,0.3-0.3,0.5-0.4s0.5-0.2,0.8-0.2l0,0l0.2-0.2v-0.7L171,30
		C170.5,30,170.1,30.1,169.7,30.3z"/>
	<polygon class="st2" points="172.8,34.8 172.6,35 172.6,36 172.8,36.2 173.6,36.2 173.8,36 173.8,35 173.6,34.8 	"/>
	<polygon class="st2" points="173.6,27.9 172.8,27.9 172.6,28.1 172.6,30.6 172.8,34 173,34.2 173.5,34.2 173.7,34 173.8,30.6 
		173.8,28.1 	"/>
</g>
</svg>
