<?xml version="1.0" encoding="utf-8"?>
<!-- Generator: Adobe Illustrator 26.0.1, SVG Export Plug-In . SVG Version: 6.00 Build 0)  -->
<svg version="1.1" id="Layer_1" xmlns="http://www.w3.org/2000/svg" xmlns:xlink="http://www.w3.org/1999/xlink" x="0px" y="0px"
	 viewBox="0 0 512 512" style="enable-background:new 0 0 512 512;" xml:space="preserve">
<style type="text/css">
	.st0{fill:#FFFFFF;}
</style>
<g id="Solid">
	<path class="st0" d="M429.6,307c-12.3-5.5-26.8,0-32.3,12.3c-35,78-126.6,112.9-204.6,77.9c-32.6-14.6-59.1-40-75-71.9l13.8,6.2
		c12.3,5.5,26.8-0.1,32.3-12.4c5.5-12.3-0.1-26.8-12.4-32.3l0,0L87,258.2c-12.3-5.5-26.8,0.1-32.3,12.4c0,0,0,0,0,0l-28.6,64.3
		c-5.5,12.3,0.1,26.8,12.4,32.3s26.8-0.1,32.3-12.4l3.3-7.3c34.6,68.8,105,112.2,182,112.2c1.2,0,2.4,0,3.6,0
		c79-1.4,150-48.2,182.3-120.3C447.4,327,441.9,312.5,429.6,307z"/>
	<path class="st0" d="M473.5,144.8c-12.3-5.5-26.8,0.1-32.3,12.4l-3.3,7.3C387.4,64,265,23.5,164.5,74.1c-41.3,20.8-74.3,55-93.6,97
		c-5.7,12.3-0.3,26.8,12,32.4c12.3,5.7,26.8,0.3,32.4-12c0,0,0,0,0-0.1c35.7-77.7,127.6-111.8,205.3-76.1c32,14.7,58,39.8,73.8,71.3
		l-13.8-6.2c-12.4-5.4-26.8,0.2-32.2,12.6c-5.4,12.3,0.1,26.6,12.3,32.1l64.1,28.5l0.1,0.1c12.3,5.5,26.8,0,32.3-12.3c0,0,0,0,0-0.1
		l28.6-64.3C491.4,164.8,485.8,150.3,473.5,144.8L473.5,144.8z"/>
</g>
</svg>
