<?xml version="1.0" encoding="utf-8"?>
<!-- Generator: Adobe Illustrator 26.0.1, SVG Export Plug-In . SVG Version: 6.00 Build 0)  -->
<svg version="1.1" id="Layer_1" xmlns="http://www.w3.org/2000/svg" xmlns:xlink="http://www.w3.org/1999/xlink" x="0px" y="0px"
	 viewBox="0 0 297.8 297.8" style="enable-background:new 0 0 297.8 297.8;" xml:space="preserve">
<style type="text/css">
	.st0{fill:#7A8593;}
</style>
<g>
	<polygon class="st0" points="141.6,76.9 141.6,167.9 199.6,167.9 199.6,151.9 157.6,151.9 157.6,76.9 	"/>
	<path class="st0" d="M297.8,149.9c0-76.3-62.1-138.3-138.4-138.3C91,11.6,34.1,61.9,23.1,126.9H0.9l38.3,66l39.4-66h-23
		c10.5-48,53.1-83.3,103.8-83.3c58.6,0,106.3,47.7,106.3,106.3c0,50.6-36.2,93.1-83.2,103.7v32.6
		C247.6,275.2,297.8,218.3,297.8,149.9z"/>
	<path class="st0" d="M24.4,271.7l10.2-10.8c6.6-7.2,11.1-12.6,13.6-16.2c2.5-3.6,3.7-7.8,3.7-12.6c0-7.1-2.3-12.6-6.9-16.7
		c-4.6-4.1-11.1-6.1-19.3-6.1c-7.8,0-14,2.4-18.7,7.3c-4.7,4.8-7,10.9-6.8,17.8l0.1,0.4h17c0-4,0.7-6.4,2.2-8.6
		c1.5-2.2,3.6-3.4,6.2-3.4c2.9,0,5.1,0.8,6.6,2.5c1.5,1.7,2.2,4,2.2,6.9c0,2-0.7,4.4-2.2,7.2c-1.4,2.8-3.5,5.9-6.6,9.4l-24,25.4
		v11.6h52v-14h-29C24.5,271.9,24.4,271.7,24.4,271.7z"/>
	<path class="st0" d="M101.6,210.9h-17v-0.3l-30.4,48.6l0.8,10.7h29.5v16h17v-16h8v-13h-8C101.6,256.9,101.6,210.9,101.6,210.9z
		 M84.6,256.9H69.7l12.9-21.5l1.5-2.3l0.5,0V256.9z"/>
	<path class="st0" d="M166.6,285.9v-32.4c0-2.4,0.1-4.6-0.2-6.7c-0.7-5.2-2.1-9.2-4.4-12.1c-3.3-4-7.8-6-13.6-6
		c-2.9,0-5.4,0.7-7.8,2.1c-2.4,1.4-5,3.4-6,5.9v-26.8h-18v76h18V245c0-0.9,1.7-1.6,2.9-2.1c1.2-0.5,2.6-0.7,4.3-0.7
		c2.7,0,4.6,0.8,5.9,2.4c1.3,1.6,1.9,4.6,1.9,8.8v32.5h6.1H166.6L166.6,285.9z"/>
</g>
</svg>
